<svg width="300" height="298" viewBox="0 0 300 298" fill="none" xmlns="http://www.w3.org/2000/svg">
<path d="M51.7231 223.197L27.668 238.833C27.668 238.833 28.8708 242.441 32.479 246.05C36.0873 249.658 48.1149 259.28 50.5204 260.483C52.9259 261.685 68.7071 277.307 82.9948 283.335C94.5424 288.207 105.847 289.349 114.266 290.552C122.685 291.754 131.339 292.796 146.741 295.363C153.957 296.565 167.118 298.024 174.404 297.768C180.524 297.553 190.008 296.342 196.054 295.363C203.251 294.196 207.343 293.306 214.095 290.552C221.107 287.69 232.136 280.93 232.136 280.93L226.122 267.699L215.298 254.469L190.04 235.225C190.04 235.225 180.531 230.281 178.012 221.995C175.538 213.855 179.215 199.142 179.215 199.142L202.067 206.359L208.081 201.548L210.487 182.304L212.892 172.682V167.87L217.703 158.248H223.717L221.311 151.032L212.892 131.788L214.095 126.977L228.528 128.18L241.758 125.774L256.191 120.963L257.394 118.557L254.989 114.949L246.569 110.138L232.136 104.124L218.906 100.516L217.703 93.2995L206.878 51.203L199.662 41.581L186.431 37.9727H165.985L139.524 39.1754L109.455 47.5947L97.4274 56.014L93.8196 60.8251L90.2113 99.3129L72.17 102.922L58.9397 107.733L52.9259 112.544L54.1287 116.152L67.359 124.571C67.359 124.571 78.1323 128.794 85.4003 129.382C88.6775 129.647 90.5399 129.614 93.8196 129.382C97.1324 129.148 102.239 130.585 102.239 130.585L103.441 140.207L109.455 151.032C108.658 157.058 107.741 159.988 105.847 165.465C101.036 173.884 97.4274 176.29 93.8196 182.304L85.4003 196.737L74.5755 206.359L51.7231 223.197Z" fill="#103249"/>
<path d="M299.023 155.825C299.075 154.457 299.202 154.229 299.419 155.111C299.594 155.827 299.394 160.203 298.973 164.838C296.231 195.083 284.339 224.324 265.254 247.76C260.576 253.502 246.682 267.762 242.261 271.358L239.606 273.517L237.826 268.812C235.911 263.753 232.133 257.445 229.459 254.842L227.803 253.233L234.095 249.455C263.415 231.857 283.035 207.632 293.89 175.624C296.342 168.396 298.924 158.438 299.023 155.825ZM135.913 0.68653C108.351 9.04458 91.8237 20.5498 74.5723 37.9717C55.6093 57.1218 40.7076 85.1335 35.6241 111.009C32.1402 128.743 32.7421 151.732 37.1514 169.374C39.8893 180.326 46.7157 196.808 52.7012 206.915L54.3526 209.703L46.0713 215.388C34.9881 222.997 24.0568 229.471 22.9991 229.054C22.5273 228.866 20.6379 226.132 18.8008 222.979C6.53529 201.927 -0.0167877 176.656 3.23031e-05 150.462C0.0369623 92.9775 35.3756 37.9438 85.3975 15.1201C102.201 7.45368 119.449 0.13682 134.942 0.0234399L138.177 0L135.913 0.68653ZM284.761 110C285.026 111.731 285.73 113.995 286.327 115.031C287.854 117.685 290.105 119.249 293.294 119.871C296.024 120.404 295.813 120.775 292.329 121.566C288.499 122.435 285.31 126.712 284.543 132.01C284.306 133.641 284.287 133.631 283.813 131.674C282.249 125.215 280.167 122.747 275.002 121.234L272.095 120.383L274.807 119.865C279.849 118.902 282.557 115.778 283.762 109.536L284.281 106.853L284.761 110ZM257.588 49.543C257.63 47.5572 257.787 47.851 258.503 51.2598C258.977 53.5225 259.798 56.2399 260.33 57.2979C262.3 61.2263 266.222 63.8101 271.457 64.6299L274.684 65.1348L270.575 66.0078C263.682 67.4723 260.147 71.2413 258.698 78.6768L257.914 82.7022L257.388 79.0127C256.354 71.7542 251.945 67.1555 244.589 65.6621C242.76 65.2905 242.299 65.0444 243.346 64.9981C246.46 64.8606 251.178 62.7497 253.308 60.542C255.628 58.137 257.507 53.3085 257.588 49.543Z" fill="#5A9CFF"/>
<path fill-rule="evenodd" clip-rule="evenodd" d="M162.171 113.224C150.644 114.678 151.681 114.051 148.937 121.225C147.618 124.671 146.296 127.807 145.999 128.195C145.18 129.261 134.163 132.47 132.144 132.23C130.735 132.062 129.815 131.098 127.627 127.49C123.919 121.378 120.183 117.771 116.183 116.443C110.371 114.512 105.778 116.107 103.183 120.956C101.94 123.279 101.765 124.609 101.765 131.696C101.765 139.419 101.856 139.975 103.781 143.991C106.249 149.141 111.765 154.749 117.243 157.679C120.33 159.331 121.996 159.795 124.977 159.839L128.777 159.894L130.287 165.123C132.678 173.408 134.587 177.141 137.754 179.732C144.741 185.445 164.425 196.046 181.959 203.537C198.504 210.605 209.683 208.466 209.604 198.244C209.562 192.816 206.653 189.962 201.142 189.944L198.279 189.934L199.848 188.255C202.182 185.757 204.542 184.757 208.11 184.757C211.507 184.757 212.094 184.223 212.094 181.129C212.094 178.634 209.692 178.099 200.811 178.613C195.598 178.916 192.594 179.385 191.57 180.056C189.371 181.497 189.286 180.879 191.261 177.776C192.801 175.357 193.217 175.082 194.823 175.427C195.823 175.643 199.238 175.293 202.411 174.652C207.319 173.66 208.526 173.611 210.492 174.322C213.827 175.528 214.936 174.471 214.361 170.636C213.483 164.781 211.962 163.492 206.885 164.304C199.567 165.474 195.841 159.164 200.878 154.129C203.427 151.58 204.742 151.06 204.019 152.888C203.773 153.511 203.419 154.927 203.233 156.035L202.894 158.049L208.95 158.521C212.281 158.781 216.17 159.4 217.594 159.895C222.654 161.656 225.683 160.47 225.683 156.727C225.683 155.78 223.068 149.819 219.874 143.479C216.679 137.139 214.012 131.385 213.948 130.692C213.641 127.408 214.187 125.707 216.3 123.369C217.546 121.99 218.565 120.28 218.565 119.568C218.565 118.47 217.99 118.209 214.771 117.845C212.685 117.609 206.642 116.369 201.344 115.09C192.504 112.955 190.777 112.747 180.386 112.559C173.483 112.434 166.372 112.694 162.171 113.224ZM209.975 124.65C209.888 124.116 206.41 122.61 201.417 120.942C192.514 117.969 189.618 117.645 184.916 119.095C181.195 120.243 173.937 124.62 172.724 126.446C171.829 127.794 171.857 127.826 173.422 127.231C175.536 126.428 187.368 125.052 189.762 125.333C191.448 125.53 191.202 125.772 186.949 128.096C180.43 131.657 180.008 132.345 184.352 132.337C186.296 132.333 189.624 132.961 191.903 133.761C195.224 134.928 196.323 135.062 197.847 134.487C199.644 133.808 199.756 133.879 200.743 136.347C201.309 137.761 202.126 138.804 202.563 138.671C203.563 138.367 210.171 125.865 209.975 124.65ZM122.795 136.875C124.115 130.657 122.445 126.208 117.43 122.575C113.866 119.993 110.453 119.997 107.862 122.587C106.074 124.376 105.971 124.772 105.975 129.867C105.977 132.83 106.313 136.42 106.722 137.843L107.465 140.432L108.27 136.226C109.096 131.914 110.987 126.519 111.673 126.519C111.884 126.519 113.006 127.44 114.166 128.564L116.277 130.609L114.359 132.793C112.918 134.434 112.442 135.619 112.442 137.563C112.442 142.56 115.274 146.579 118.795 146.579C119.64 146.579 121.193 147.193 122.247 147.944C123.301 148.695 124.332 149.141 124.537 148.936C124.742 148.731 124.251 146.799 123.444 144.642C122.092 141.026 122.042 140.425 122.795 136.875Z" fill="#5A9CFF"/>
<path fill-rule="evenodd" clip-rule="evenodd" d="M150.297 36.9957C127.512 38.7979 106.333 45.4636 97.8234 53.5114C95.0117 56.171 94.2792 57.3325 93.6793 60.0852C93.1248 62.6276 91.2256 84.3058 91.1065 89.4501C91.0942 89.9885 92.0571 89.8183 94.1621 88.9111C105.261 84.1252 133.492 78.0536 155.696 75.6781C174.431 73.6734 201.872 75.1359 208.858 78.5111C211.047 79.5684 211.205 79.8971 213.549 88.2873C214.884 93.0628 215.829 97.1159 215.65 97.2949C215.472 97.4739 210.012 96.9819 203.518 96.2009C197.024 95.4199 187.488 94.4612 182.328 94.0691C170.294 93.1554 128.241 93.8193 113.736 95.1519C81.3439 98.1279 56.1727 104.569 52.8784 110.725C51.7505 112.832 51.9239 115.404 53.3197 117.273C54.8274 119.292 61.6691 123.484 66.2628 125.203C70.7652 126.887 82.3404 129.229 84.8828 128.971C86.1815 128.839 85.0167 128.475 81.56 127.934C71.7242 126.394 63.8123 123.087 59.0523 118.526C55.448 115.072 55.3451 113.524 58.5721 111.321C63.5748 107.905 84.7864 102.68 103.271 100.309C128.558 97.0659 171.585 97.5299 193.735 101.286C214.93 104.88 244.541 112.835 252.991 117.204L254.932 118.208L253.48 119.754C250.989 122.406 241.731 124.766 230.665 125.57C225.297 125.96 224.357 126.193 224.535 127.084C225.091 129.85 250.596 126.236 256.567 122.546C261.339 119.596 257.964 113.807 248.62 108.913C243.993 106.49 223.904 99.3419 221.721 99.3419C221.014 99.3419 220.399 98.7499 220.207 97.8859C218.336 89.4598 209.746 55.828 208.497 52.0399C205.056 41.6017 200.488 38.6348 185.702 37.2326C179.435 36.6379 156.74 36.4865 150.297 36.9957ZM189.122 46.9001C194.679 48.6777 197.52 50.7373 198.496 53.6965C199.079 55.4604 199.055 56.336 198.387 57.7285C197.04 60.5382 194.978 61.2551 189.011 60.9892C184.641 60.7944 183.069 60.4094 179.952 58.7697C168.497 52.7453 166.622 51.9836 157.578 49.6806C152.33 48.3444 148.035 47.0573 148.034 46.8205C148.033 46.5843 150.289 46.1987 153.047 45.9638C155.805 45.7295 158.353 45.4196 158.709 45.2746C159.065 45.1303 165.034 45.1109 171.974 45.2319C182.874 45.4215 185.209 45.6486 189.122 46.9001ZM92.4822 184.103C91.5116 186.888 86.5982 194.294 83.137 198.192L80.1636 201.54L86.5174 217.252C90.0116 225.895 93.2193 233.712 93.6457 234.625C94.5128 236.477 94.672 236.535 109.819 240.45C115.316 241.871 119.891 243.111 119.985 243.205C120.08 243.3 118.057 245.803 115.491 248.767C112.924 251.732 110.437 254.685 109.964 255.328C109.194 256.378 109.912 257.433 116.859 265.461C129.271 279.805 140.188 291.461 142.748 293.104C145.319 294.753 150.61 295.711 161.287 296.462L167.657 296.91L159.233 280.468C142.418 247.65 132.598 232.37 110.821 205.141C106.836 200.158 101.478 193.104 98.9134 189.464C96.3494 185.825 94.0048 182.695 93.7033 182.51C93.4024 182.323 92.8523 183.04 92.4822 184.103ZM74.673 205.974C73.3756 208.073 48.8781 225.13 33.511 234.634C27.668 238.835 27.668 238.835 27.668 238.835C30.0776 242.412 33.6818 246.052 34.8845 246.052C40.5168 246.297 41.6009 245.627 46.37 247.716C60.7548 254.017 70.3039 262.575 79.7637 277.643C81.7218 280.761 83.3233 283.14 83.3233 282.929C83.3233 282.718 82.563 280.417 81.6331 277.815C79.1379 270.833 74.1301 261.397 69.737 255.4C67.6074 252.492 66.1754 250.114 66.5553 250.114C67.4754 250.114 76.3632 256.091 80.3978 259.423C82.1702 260.887 86.5381 264.814 90.1042 268.149C95.7684 273.446 97.5304 274.663 104.03 277.766C113.675 282.372 121.622 285.799 121.933 285.487C122.368 285.053 110.81 270.06 105.389 264.026C102.512 260.823 100.158 257.911 100.159 257.555C100.16 257.199 102.048 254.67 104.355 251.935C107.784 247.872 108.345 246.902 107.422 246.633C106.803 246.451 103.819 245.719 100.794 245.006C97.7694 244.293 93.7013 243.16 91.7549 242.489L88.2153 241.267L85.1507 232.264C80.535 218.699 76.0914 206.502 75.5447 205.893C75.2761 205.595 74.884 205.631 74.673 205.974ZM174.85 221.935L173.519 224.757L175.725 227.735C176.938 229.372 179.244 232.966 180.85 235.722C182.456 238.476 183.569 240.148 183.322 239.437C183.074 238.725 181.884 234.939 180.676 231.024C177.215 219.801 176.956 219.051 176.557 219.083C176.35 219.099 175.582 220.382 174.85 221.935ZM161.431 235.716C160.117 238.474 158.966 241.08 158.875 241.506C158.784 241.932 161.038 244.188 163.886 246.518C168.069 249.941 169.498 250.755 171.332 250.757C172.579 250.759 174.606 251.049 175.835 251.401C178.468 252.156 179.013 251.753 179.512 248.676C179.807 246.858 179.258 244.914 176.879 239.349C175.225 235.482 173.389 231.955 172.799 231.51C172.21 231.065 169.948 230.701 167.774 230.701H163.821L161.431 235.716ZM186.21 232.838C186.21 232.986 187.7 236.28 189.52 240.155C195.233 252.315 201.618 268.732 209.216 290.787C209.55 291.759 211.027 291.531 214.918 289.904C216.693 289.163 217.254 288.594 217.012 287.783C216.829 287.173 216.21 283.908 215.635 280.527C212.881 264.322 212.1 262.51 204.41 254.481C202.791 252.791 201.71 251.408 202.008 251.408C203.725 251.408 214.927 258.282 216.827 260.502C219.241 263.323 225.718 275.478 226.979 279.556C228.145 283.324 228.58 283.527 231.198 281.529C233.393 279.856 233.514 279.578 233.14 277.062C232.471 272.563 226.816 261.79 223.301 258.319C219.671 254.732 204.417 243.773 194.622 237.711L194.599 237.697C187.304 233.183 186.353 232.595 186.229 232.736C186.21 232.757 186.21 232.794 186.21 232.838ZM171.028 256.81C169.928 257.615 169.871 258.374 170.293 266.522C170.739 275.118 170.85 275.632 174.341 285.224C176.314 290.648 178.182 295.561 178.492 296.141C179.11 297.3 180.515 297.277 190.955 295.939L196.67 295.207L196.239 292.914C195.522 289.092 191.447 279.49 185.814 268.352C182.878 262.545 180.129 257.377 179.704 256.866C178.709 255.666 172.646 255.627 171.028 256.81Z" fill="#B61B17"/>
<path d="M109.045 188.431C120.862 199.046 137.479 210.194 153.344 218.151C159.322 221.149 160.25 221.46 159.25 220.134C158.597 219.269 155.606 216.706 152.603 214.439C137.026 202.681 128.593 191.549 123.842 176.473C122.91 173.519 122.148 170.713 122.148 170.238C122.148 169.705 120.982 169.2 119.101 168.917C117.424 168.666 114.148 167.74 111.821 166.86C109.493 165.98 107.143 165.116 106.598 164.94C105.775 164.675 105.473 165.912 104.811 172.263C104.085 179.236 103.695 181.824 104.627 183.784C105.296 185.193 106.647 186.277 109.045 188.431Z" fill="#5A9CFF"/>
</svg>
