<svg width="374" height="130" viewBox="0 0 374 130" fill="none" xmlns="http://www.w3.org/2000/svg">
<g clip-path="url(#clip0_3975_10918)">
<path d="M126.307 66.9932C126.328 66.4245 126.382 66.3293 126.472 66.6963C126.544 66.9942 126.461 68.8138 126.286 70.7402C125.146 83.313 120.203 95.4687 112.269 105.211C110.324 107.598 104.549 113.527 102.711 115.021L101.606 115.919L100.866 113.963C100.07 111.86 98.4995 109.237 97.3877 108.155L96.7002 107.486L99.3164 105.916C111.505 98.6002 119.66 88.5293 124.173 75.2236C125.192 72.2191 126.265 68.0795 126.307 66.9932ZM58.5 2.5C47.0424 5.97457 40.1716 10.7575 33 18C25.1169 25.9609 18.9219 37.6056 16.8086 48.3623C15.3603 55.7344 15.6105 65.2908 17.4434 72.625C18.5815 77.1777 21.4199 84.0296 23.9082 88.2314L24.5938 89.3906L21.1514 91.7539C16.5442 94.9169 12.0006 97.6079 11.5605 97.4346C11.3644 97.3565 10.5782 96.2199 9.81445 94.9092C4.71571 86.1578 1.99305 75.6525 2 64.7637C2.01533 40.8667 16.7053 17.9881 37.5 8.5C44.4855 5.31296 51.6559 2.27174 58.0967 2.22461L59.4414 2.21484L58.5 2.5ZM120.378 47.9424C120.488 48.6619 120.781 49.6033 121.029 50.0342C121.664 51.1374 122.6 51.788 123.925 52.0469C125.06 52.2683 124.972 52.4222 123.524 52.751C121.932 53.1124 120.606 54.8902 120.287 57.0928C120.189 57.7704 120.181 57.7664 119.984 56.9531C119.334 54.2679 118.468 53.2422 116.321 52.6133L115.113 52.2588L116.24 52.0439C118.336 51.6434 119.462 50.3446 119.963 47.75L120.179 46.6348L120.378 47.9424ZM109.081 22.8105C109.099 21.9848 109.164 22.1071 109.462 23.5244C109.659 24.465 110.001 25.5944 110.222 26.0342C111.041 27.6672 112.671 28.7412 114.848 29.082L116.188 29.292L114.48 29.6543C111.615 30.2631 110.146 31.8308 109.543 34.9219L109.218 36.5947L108.999 35.0605C108.569 32.0433 106.736 30.1315 103.678 29.5107C102.918 29.3563 102.726 29.2546 103.161 29.2354C104.455 29.1782 106.417 28.3005 107.303 27.3828C108.267 26.3831 109.048 24.3759 109.081 22.8105Z" fill="#5A9CFF"/>
<path fill-rule="evenodd" clip-rule="evenodd" d="M69.4148 49.2818C64.6225 49.8865 65.054 49.6256 63.9129 52.608C63.3647 54.0404 62.8151 55.3443 62.6916 55.5054C62.3513 55.9487 57.7716 57.2827 56.932 57.1829C56.3461 57.1133 55.9639 56.7122 55.0541 55.2125C53.513 52.6717 51.9598 51.1723 50.2971 50.6201C47.8809 49.8174 45.9715 50.4804 44.8928 52.4964C44.376 53.4621 44.3031 54.0146 44.3031 56.961C44.3031 60.1713 44.3411 60.4026 45.1411 62.072C46.1671 64.213 48.4603 66.5445 50.7374 67.7623C52.0208 68.449 52.7132 68.6422 53.9528 68.6602L55.5324 68.6833L56.16 70.8571C57.1542 74.3009 57.9478 75.8531 59.2643 76.9299C62.1687 79.3049 70.3518 83.712 77.6407 86.826C84.5188 89.7645 89.1658 88.875 89.133 84.6258C89.1155 82.3691 87.9063 81.1828 85.6155 81.1753L84.4252 81.1712L85.0775 80.4732C86.0478 79.4346 87.0289 79.0192 88.5119 79.0192C89.9241 79.0192 90.1681 78.797 90.1681 77.5109C90.1681 76.4737 89.1699 76.2512 85.4778 76.465C83.3107 76.5909 82.062 76.7857 81.6362 77.0647C80.7218 77.6637 80.6868 77.4071 81.5078 76.117C82.1478 75.1111 82.3208 74.9971 82.9884 75.1405C83.4043 75.23 84.8238 75.0848 86.143 74.8182C88.1831 74.4058 88.6848 74.3854 89.5023 74.681C90.8888 75.1824 91.3498 74.7432 91.1107 73.1488C90.7457 70.7146 90.1132 70.179 88.0026 70.5166C84.9605 71.0029 83.4118 68.3799 85.5055 66.2865C86.5651 65.2269 87.112 65.0109 86.8115 65.7708C86.709 66.0296 86.5619 66.6185 86.4844 67.079L86.3437 67.9161L88.861 68.1125C90.2459 68.2206 91.8628 68.4778 92.4546 68.6836C94.558 69.4158 95.8172 68.9227 95.8172 67.3666C95.8172 66.973 94.7304 64.4947 93.4023 61.8593C92.0743 59.2238 90.9657 56.8316 90.9388 56.5435C90.8113 55.1783 91.0383 54.4714 91.9166 53.4995C92.4345 52.9262 92.8581 52.2152 92.8581 51.9193C92.8581 51.4628 92.6193 51.3544 91.281 51.203C90.4137 51.1048 87.9018 50.5894 85.6992 50.0576C82.0246 49.1701 81.3066 49.0835 76.987 49.0055C74.1173 48.9536 71.1609 49.0615 69.4148 49.2818ZM89.2871 54.0318C89.2511 53.8099 87.8055 53.1837 85.7296 52.4904C82.0284 51.2546 80.8246 51.1199 78.87 51.7227C77.3232 52.1999 74.3058 54.0192 73.8017 54.7786C73.4297 55.3389 73.4413 55.3521 74.0917 55.1049C74.9705 54.7708 79.8893 54.1991 80.8846 54.3156C81.5856 54.3977 81.4834 54.4983 79.7149 55.4643C77.005 56.9449 76.8299 57.2308 78.6354 57.2273C79.4435 57.2257 80.8273 57.4869 81.7744 57.8194C83.1549 58.3044 83.612 58.3601 84.2455 58.1212C84.9928 57.839 85.039 57.8686 85.4493 58.8943C85.6846 59.4821 86.0244 59.9157 86.2062 59.8606C86.6219 59.7341 89.3689 54.537 89.2871 54.0318ZM53.0455 59.1138C53.5942 56.529 52.9002 54.6796 50.8154 53.1691C49.3338 52.0958 47.9148 52.0977 46.838 53.1742C46.0944 53.9178 46.0517 54.0827 46.0533 56.2005C46.0541 57.4326 46.1937 58.9247 46.3637 59.5165L46.6728 60.5925L47.0074 58.844C47.3507 57.0514 48.1367 54.809 48.4218 54.809C48.5098 54.809 48.9763 55.1915 49.4586 55.659L50.3358 56.5091L49.5387 57.417C48.9397 58.0991 48.7417 58.592 48.7417 59.4C48.7417 61.4773 49.9191 63.1481 51.3827 63.1481C51.7338 63.1481 52.3797 63.4033 52.8179 63.7154C53.2561 64.0274 53.6846 64.213 53.7699 64.1278C53.8552 64.0425 53.6507 63.2392 53.3155 62.3429C52.7533 60.8395 52.7323 60.5898 53.0455 59.1138Z" fill="#5A9CFF"/>
<path fill-rule="evenodd" clip-rule="evenodd" d="M64.4783 17.593C55.0065 18.3421 46.202 21.1131 42.6644 24.4587C41.4956 25.5643 41.191 26.0472 40.9417 27.1915C40.7111 28.2484 39.9216 37.2603 39.8721 39.3989C39.867 39.6227 40.2673 39.5519 41.1424 39.1748C45.7563 37.1853 57.4926 34.6612 66.7229 33.6737C74.5113 32.8403 85.9187 33.4483 88.8231 34.8514C89.7329 35.2909 89.7985 35.4276 90.7731 38.9155C91.3281 40.9007 91.7211 42.5858 91.6466 42.66C91.5723 42.7345 89.3027 42.5298 86.603 42.2054C83.9033 41.8807 79.9393 41.482 77.794 41.319C72.7913 40.9392 55.3094 41.2152 49.2797 41.7691C35.8137 43.0065 25.3497 45.6841 23.9802 48.2431C23.5114 49.119 23.5835 50.188 24.1637 50.9649C24.7905 51.8045 27.6347 53.5471 29.5443 54.2616C31.416 54.9618 36.2279 55.9356 37.2849 55.828C37.8247 55.7731 37.3405 55.6219 35.9035 55.397C31.8147 54.7568 28.5256 53.3819 26.5468 51.486C25.0485 50.0503 25.0057 49.4066 26.3472 48.4906C28.4269 47.0708 37.2448 44.8986 44.9294 43.913C55.4415 42.5648 73.328 42.7579 82.5362 44.3192C91.3472 45.8133 103.657 49.1201 107.169 50.9364L107.977 51.3539L107.373 51.9965C106.337 53.0989 102.489 54.08 97.8885 54.4143C95.6569 54.5766 95.266 54.6731 95.3402 55.0438C95.5713 56.1935 106.174 54.6911 108.656 53.157C110.64 51.9309 109.237 49.5244 105.353 47.4899C103.429 46.4825 95.0777 43.5109 94.1701 43.5109C93.8763 43.5109 93.6208 43.265 93.5409 42.9056C92.7632 39.4029 89.1919 25.4218 88.6727 23.847C87.2424 19.5077 85.3436 18.2744 79.1968 17.6914C76.5913 17.4442 67.1571 17.3813 64.4783 17.593ZM80.6185 21.7103C82.9285 22.4493 84.1096 23.3055 84.5156 24.5357C84.7577 25.269 84.7477 25.6329 84.4701 26.2118C83.91 27.3798 83.053 27.6779 80.5725 27.5673C78.7557 27.4864 78.1023 27.3263 76.8065 26.6446C72.0446 24.1402 71.265 23.8236 67.5054 22.8662C65.3236 22.3107 63.5382 21.7757 63.5376 21.6772C63.5371 21.5791 64.4751 21.4187 65.6216 21.3211C66.7681 21.2237 67.8274 21.0949 67.9754 21.0346C68.1233 20.9746 70.6049 20.9665 73.4899 21.0168C78.0213 21.0957 78.9919 21.1901 80.6185 21.7103ZM40.444 78.7473C40.0405 79.9048 37.998 82.9838 36.5591 84.604L35.323 85.9958L37.9644 92.5277C39.417 96.1205 40.7504 99.3704 40.9277 99.7496C41.2882 100.52 41.3543 100.544 47.6511 102.171C49.9363 102.762 51.8382 103.277 51.8775 103.317C51.917 103.356 51.0761 104.396 50.0092 105.629C48.9421 106.861 47.9083 108.089 47.7117 108.356C47.3916 108.793 47.6902 109.231 50.5779 112.568C55.7376 118.531 60.276 123.377 61.3404 124.06C62.4092 124.746 64.6085 125.144 69.0471 125.456L71.6952 125.642L68.1933 118.807C61.2032 105.164 57.1208 98.8125 48.0678 87.4928C46.4113 85.4215 44.1837 82.4888 43.1176 80.9759C42.0516 79.4631 41.077 78.1619 40.9516 78.0847C40.8265 78.0072 40.5979 78.3053 40.444 78.7473ZM33.0405 87.839C32.5012 88.7117 22.3173 95.8026 15.929 99.7534C13.5 101.5 13.5 101.5 13.5 101.5C14.5017 102.987 16 104.5 16.5 104.5C18.8414 104.602 19.2921 104.323 21.2746 105.192C27.2546 107.811 31.2242 111.369 35.1568 117.633C35.9708 118.929 36.6366 119.918 36.6366 119.83C36.6366 119.742 36.3205 118.786 35.9339 117.705C34.8967 114.802 32.8148 110.879 30.9886 108.386C30.1033 107.177 29.508 106.189 29.6659 106.189C30.0484 106.189 33.7432 108.673 35.4204 110.059C36.1572 110.667 37.973 112.299 39.4554 113.686C41.81 115.888 42.5425 116.394 45.2447 117.684C49.2544 119.599 52.5578 121.023 52.6874 120.894C52.8682 120.713 48.0633 114.481 45.8098 111.972C44.6136 110.641 43.6352 109.43 43.6355 109.282C43.6357 109.134 44.421 108.083 45.38 106.946C46.8051 105.257 47.0384 104.853 46.655 104.742C46.3973 104.666 45.1572 104.362 43.8996 104.065C42.642 103.769 40.9508 103.298 40.1417 103.019L38.6702 102.511L37.3962 98.7681C35.4774 93.1292 33.6302 88.0585 33.4029 87.8057C33.2912 87.6817 33.1282 87.6967 33.0405 87.839ZM74.6854 94.4742L74.1323 95.6474L75.0491 96.8853C75.5535 97.5659 76.5122 99.0602 77.1798 100.206C77.8475 101.351 78.3099 102.046 78.2072 101.75C78.1044 101.454 77.6097 99.8804 77.1075 98.2529C75.6686 93.5873 75.561 93.2756 75.395 93.2887C75.3089 93.2955 74.9896 93.8289 74.6854 94.4742ZM69.1071 100.203C68.5607 101.35 68.0824 102.433 68.0445 102.61C68.0066 102.788 68.9438 103.725 70.1274 104.694C71.8665 106.117 72.4605 106.455 73.2228 106.456C73.7415 106.457 74.584 106.577 75.0948 106.724C76.1894 107.038 76.4159 106.87 76.6235 105.591C76.7459 104.835 76.5178 104.027 75.5287 101.714C74.8411 100.106 74.0782 98.6397 73.8329 98.4547C73.5879 98.2699 72.6477 98.1184 71.7438 98.1184H70.1005L69.1071 100.203ZM79.408 99.0067C79.408 99.0685 80.0272 100.438 80.784 102.049C83.1587 107.104 85.8132 113.929 88.9716 123.097C89.1107 123.501 89.7248 123.406 91.342 122.73C92.0799 122.422 92.3131 122.185 92.2125 121.848C92.1367 121.595 91.8792 120.237 91.6404 118.832C90.4955 112.095 90.1705 111.342 86.9737 108.004C86.3007 107.301 85.8514 106.727 85.9754 106.727C86.6891 106.727 91.3458 109.584 92.1356 110.507C93.1393 111.68 95.8317 116.733 96.3563 118.428C96.8407 119.994 97.0215 120.079 98.1102 119.248C99.0226 118.553 99.0726 118.437 98.9172 117.391C98.639 115.521 96.2885 111.043 94.8272 109.599C93.3181 108.109 86.9769 103.553 82.905 101.033L82.8952 101.027C79.8628 99.1504 79.4673 98.9058 79.4157 98.9643C79.408 98.973 79.408 98.9887 79.408 99.0067ZM73.0967 108.972C72.6393 109.307 72.6154 109.623 72.7911 113.01C72.9764 116.583 73.0227 116.797 74.4737 120.784C75.2941 123.039 76.0708 125.082 76.1996 125.323C76.4565 125.804 77.0405 125.795 81.3803 125.239L83.7562 124.935L83.5773 123.981C83.2792 122.392 81.585 118.401 79.2434 113.77C78.0226 111.357 76.8799 109.208 76.7034 108.996C76.2897 108.497 73.7692 108.481 73.0967 108.972Z" fill="#B61B17"/>
<path d="M47.3294 80.5463C52.242 84.9591 59.1499 89.5935 65.7451 92.9011C68.2304 94.1474 68.6161 94.2771 68.2003 93.7256C67.9288 93.366 66.6855 92.3004 65.4371 91.3581C58.9616 86.4703 55.456 81.8427 53.4807 75.5755C53.0933 74.3472 52.7767 73.1808 52.7767 72.9833C52.7767 72.7617 52.292 72.5516 51.5097 72.4343C50.8127 72.3297 49.451 71.945 48.4834 71.5791C47.5158 71.2133 46.5388 70.8542 46.3123 70.781C45.9701 70.6707 45.8445 71.1848 45.5696 73.8251C45.2675 76.7239 45.1056 77.7998 45.4928 78.6147C45.771 79.2002 46.3327 79.651 47.3294 80.5463Z" fill="#5A9CFF"/>
</g>
<path fill-rule="evenodd" clip-rule="evenodd" d="M184.262 43.4091C183.926 43.9137 183.589 44.5858 183.422 45.0903C180.9 50.1339 178.378 55.1774 175.856 60.3892C175.184 61.5658 174.511 62.9106 174.007 64.0879C173.839 64.7606 173.334 64.7606 172.83 64.7606C172.326 64.7606 171.821 64.7606 171.485 64.0879C169.468 59.3807 167.451 54.841 165.433 50.3021C164.424 48.1163 163.416 45.7631 162.407 43.5773C162.407 43.2409 162.238 43.0728 162.07 42.9046C162.07 42.9046 162.07 42.9046 161.902 42.9046C161.902 43.5773 161.734 44.0812 161.734 44.7539C161.566 49.2929 161.229 54.0008 161.061 58.5398C161.061 59.38 161.061 60.221 161.061 60.8937C161.229 62.0703 161.734 62.5749 162.91 62.9113C163.415 63.0795 164.087 63.2477 163.92 63.9204C163.92 64.2568 163.751 64.425 163.583 64.5932C163.247 64.7613 162.91 64.7613 162.574 64.7613C160.053 64.7613 157.699 64.7613 155.345 64.7613C155.008 64.7613 154.672 64.7613 154.505 64.7613C154.336 64.5931 154 64.2568 154 64.0886C154 63.7522 154.168 63.4165 154.336 63.2483C154.505 63.0802 154.841 63.0802 155.009 62.912C156.018 62.4074 156.69 61.9035 156.69 60.7269C156.858 58.373 157.195 56.0191 157.363 53.6658C157.531 49.6314 157.868 45.4281 158.203 41.393C158.203 40.7202 158.203 40.0482 158.203 39.3754C158.203 38.1981 157.699 37.1897 156.522 36.6858C156.186 36.5176 155.85 36.1812 156.018 35.6767C156.018 35.1721 156.522 35.1721 156.858 35.1721C158.035 35.0039 159.044 35.0039 160.221 35.0039C161.566 35.0039 162.91 35.0039 164.255 35.0039C164.928 35.0039 165.264 35.1721 165.432 35.8448C166.777 38.5345 168.122 41.393 169.299 44.2508C170.812 47.4449 172.326 50.6391 173.838 53.834C174.006 54.1704 174.006 54.6742 174.174 55.1788C174.847 54.0022 175.351 53.1612 175.687 52.1528C177.2 49.1268 178.713 46.1001 180.058 43.0741C181.235 40.7202 182.412 38.367 183.42 36.013C183.757 35.3403 184.261 35.1728 185.102 35.1728C186.783 35.1728 188.464 35.1728 190.313 35.1728C190.986 35.1728 191.826 35.1728 192.499 35.1728C193.004 35.1728 193.172 35.341 193.172 35.8455C193.172 36.1819 193.172 36.5176 192.667 36.6858C190.818 37.1903 190.481 38.0306 190.481 40.2163C190.65 44.2508 190.818 48.1177 190.986 52.1528C191.154 54.6742 191.322 57.1964 191.322 59.7178C191.491 60.2224 191.491 60.7269 191.659 61.0626C191.827 62.071 192.332 62.5756 193.172 62.912C193.508 62.912 193.676 62.912 193.845 63.0802C194.013 63.4165 194.18 63.7529 194.349 64.0893C194.349 64.2575 194.013 64.5938 193.676 64.5938C193.508 64.762 193.172 64.762 193.004 64.762C189.641 64.762 186.447 64.762 183.253 64.762C182.58 64.762 182.076 64.762 181.908 64.0893C181.74 63.4172 182.076 63.249 182.917 62.9127C184.262 62.5763 184.767 62.0724 184.767 60.7276C184.935 59.7185 184.935 58.5419 184.935 57.5334C184.767 52.9944 184.598 48.4548 184.43 43.9158C184.43 43.7476 184.43 43.5801 184.43 43.5801C184.262 43.4119 184.262 43.4119 184.262 43.4119V43.4091Z" fill="#5A9CFF"/>
<path fill-rule="evenodd" clip-rule="evenodd" d="M199.729 51.648C199.729 48.9584 199.729 46.0999 199.729 43.4103C199.729 42.2337 199.729 41.0564 199.561 39.8797C199.561 39.207 199.393 38.7031 199.225 38.0304C198.889 37.1901 198.216 36.8538 197.544 36.6856C197.039 36.5174 196.871 36.3492 196.871 35.6764C197.039 35.1719 197.376 35.1719 197.712 35.1719C200.738 35.1719 203.596 35.1719 206.623 35.1719C209.144 35.1719 211.666 35.1719 214.187 35.5082C216.709 35.8446 219.063 36.8531 220.576 39.207C221.249 40.2161 221.752 41.5609 221.752 42.9057C221.921 46.7727 220.576 49.4623 216.877 51.1435C216.204 51.4799 216.037 51.8162 216.373 52.4883C218.222 55.3468 219.903 58.3728 221.584 61.2306C222.257 62.2397 223.097 62.9118 224.106 63.0799C224.442 63.0799 224.611 63.2481 224.779 63.4163C224.947 63.5845 225.284 63.9209 225.284 64.2566C225.116 64.4248 224.779 64.7611 224.611 64.7611C222.257 64.7611 219.904 64.7611 217.718 64.5929C216.541 64.5929 215.869 63.5838 215.364 62.7436C213.683 59.8851 211.834 57.0273 210.152 54.0013C209.648 52.9921 208.976 52.6565 207.967 52.824C207.967 52.824 207.799 52.824 207.631 52.824C206.286 52.824 206.286 52.824 206.286 54.0013C206.286 55.8506 206.286 57.7 206.286 59.5494C206.454 60.2214 206.454 60.8942 206.623 61.3988C206.958 62.2397 207.463 62.7436 208.136 62.9117C208.304 63.0799 208.471 63.0799 208.64 63.0799C209.145 63.2481 209.48 63.5845 209.48 64.0891C209.48 64.7618 208.976 64.7618 208.471 64.7618C207.967 64.7618 207.463 64.7618 206.958 64.7618C204.269 64.7618 201.41 64.7618 198.552 64.7618C198.384 64.7618 198.048 64.7618 197.712 64.7618C197.544 64.5936 197.207 64.4254 197.039 64.0891C197.039 63.7527 197.207 63.417 197.544 63.2488C198.384 62.9124 199.057 62.4086 199.393 61.7358C199.561 61.2313 199.561 60.5585 199.561 60.0546C199.561 57.365 199.561 54.5065 199.561 51.6487C199.73 51.6487 199.73 51.6487 199.73 51.6487L199.729 51.648ZM206.285 43.9142C206.285 45.4272 206.285 47.1083 206.285 48.6213C206.285 49.1259 206.454 49.4623 206.958 49.2941C208.303 49.2941 209.648 49.2941 210.825 49.1259C212.506 48.6213 214.019 47.7811 214.524 45.9317C214.692 44.9233 214.86 43.9142 214.692 43.0739C214.524 41.2246 213.684 39.7116 211.834 39.0395C210.153 38.3667 208.472 38.5349 206.791 38.5349C206.286 38.5349 206.286 38.8706 206.286 39.207C206.286 40.8882 206.286 42.4012 206.286 43.9142H206.285Z" fill="#5A9CFF"/>
<path fill-rule="evenodd" clip-rule="evenodd" d="M333.889 54.671C333.889 54.3346 334.057 54.1664 334.057 53.8307C334.057 49.4599 334.057 45.0884 334.057 40.5495C334.057 40.0449 333.889 39.5403 333.889 39.0365C333.721 37.8598 333.049 37.0189 331.871 36.6825C331.367 36.5143 331.031 36.178 331.199 35.6734C331.199 35.1688 331.703 35.1688 332.04 35.1688C334.729 35.1688 337.419 35.1688 340.109 35.1688C340.277 35.1688 340.782 35.5052 340.782 35.5052C340.782 35.8416 340.614 36.5137 340.446 36.5137C338.428 37.1864 338.092 38.8676 338.092 40.5488C337.923 46.7689 337.923 52.9898 337.755 59.21C337.755 60.7237 337.755 62.2367 337.755 63.9178C337.755 64.7581 337.587 64.7581 336.746 64.927C336.578 64.927 336.242 64.7588 335.906 64.927C334.729 65.0952 333.888 64.4224 333.047 63.5822C331.871 62.2373 330.693 60.8926 329.349 59.5477C327.163 57.0256 324.977 54.6724 322.96 52.3184C320.439 49.6288 317.917 46.7703 315.395 43.9125C315.395 43.9125 315.395 43.9125 315.227 43.7443C315.059 44.0807 315.059 44.2489 315.059 44.5846C315.059 49.6281 315.059 54.6717 315.059 59.7152C315.059 60.0516 315.059 60.5555 315.227 60.8919C315.395 61.901 315.9 62.7412 316.908 62.9094C317.245 63.0776 317.413 63.0776 317.581 63.2458C318.086 63.5822 318.086 64.4224 317.581 64.5906C317.245 64.7588 317.077 64.7588 316.741 64.7588C314.387 64.7588 312.034 64.7588 309.68 64.7588C309.343 64.7588 309.007 64.7588 308.671 64.5906C308.334 64.5906 308.166 64.2542 308.166 64.086C308.166 63.7497 308.334 63.2458 308.502 63.2458C310.352 62.7412 310.856 61.2282 310.856 59.5471C311.025 57.1931 310.856 54.8392 311.024 52.4859C311.024 48.619 311.024 44.7521 311.024 40.8858C311.024 39.8767 311.025 38.7001 310.352 37.8598C310.016 37.5235 309.68 37.1871 309.175 36.8507C309.007 36.6825 308.671 36.6825 308.503 36.5143C308.167 36.1787 308.167 35.8423 308.167 35.6741C308.167 35.5059 308.503 35.1695 308.671 35.1695C310.352 35.1695 312.202 35.1695 313.883 35.1695C315.396 34.8332 316.236 35.5059 317.077 36.5143C318.254 38.0273 319.599 39.3728 320.944 40.7177C322.962 43.0716 325.147 45.4248 327.332 47.7788C329.014 49.6281 330.863 51.4775 332.544 53.3269C332.88 53.6626 333.384 54.1671 333.721 54.6717C333.889 54.6717 333.889 54.6717 333.889 54.6717V54.671Z" fill="#5A9CFF"/>
<path fill-rule="evenodd" clip-rule="evenodd" d="M276.223 48.2827C276.223 46.2651 276.391 44.0794 276.223 41.8943C276.223 40.7177 276.055 39.5404 275.887 38.3637C275.718 37.3553 275.046 37.0189 274.205 36.6826C274.037 36.5144 273.701 36.3462 273.533 36.178C273.365 35.6734 273.533 35.1689 274.205 35.1689C275.719 35.1689 277.231 35.1689 278.913 35.1689C280.594 35.0007 282.276 35.0007 283.957 35.0007C284.125 35.0007 284.461 35.0007 284.797 35.1689C284.965 35.1689 285.469 35.5052 285.469 35.5052C285.469 35.8416 285.133 36.178 284.965 36.5137C284.965 36.5137 284.965 36.5137 284.796 36.6819C283.452 37.0182 282.947 38.0267 282.779 39.3715C282.779 41.5565 282.779 43.5748 282.611 45.5917C282.611 48.7858 282.611 51.98 282.779 55.1742C282.779 57.5281 283.955 59.3775 286.141 60.3859C289 61.8989 292.194 61.8989 295.052 60.3859C296.565 59.5457 297.406 58.2002 297.741 56.6872C298.078 55.847 298.246 54.8378 298.246 53.8294C298.414 49.7943 298.414 45.7598 298.414 41.7247C298.414 40.3799 298.078 39.2026 297.741 38.026C297.573 37.3539 296.901 36.8494 296.228 36.6812C295.724 36.513 295.388 36.3448 295.388 35.8409C295.556 35.5046 295.556 35.1682 296.061 35.1682C296.396 35.1682 296.734 35 297.069 35C299.423 35 301.945 35 304.299 35.1682C304.635 35.1682 304.971 35.1682 305.307 35.3364C305.643 35.6727 305.307 36.3455 304.802 36.513C303.121 37.1857 302.785 38.5305 302.785 40.2117C302.617 44.415 302.617 48.6177 302.448 52.9892C302.28 55.3431 302.112 57.6963 300.767 59.8821C299.591 62.0678 297.741 63.749 295.219 64.5899C291.857 65.9347 288.326 65.7666 284.627 64.9263C282.778 64.4218 280.761 63.749 279.248 62.2367C277.398 60.3873 276.39 58.0334 276.222 55.512C276.222 53.158 276.222 50.6366 276.222 48.2827H276.223Z" fill="#5A9CFF"/>
<path fill-rule="evenodd" clip-rule="evenodd" d="M367.512 64.7571C365.831 64.7571 364.15 64.7571 362.637 64.7571C362.3 64.7571 361.964 64.7571 361.628 64.7571C361.123 64.5889 360.956 64.2525 360.956 63.7479C360.956 63.4122 361.124 63.0752 361.628 62.9077C363.141 62.4031 363.477 61.7311 362.972 60.0499C362.636 59.2089 362.132 58.2005 361.963 57.1921C361.627 56.6875 361.291 56.5193 360.787 56.5193C357.928 56.5193 355.07 56.5193 352.381 56.3511C352.044 56.3511 351.708 56.5193 351.372 56.3511C350.531 56.1829 350.363 56.5193 350.195 57.1921C349.859 58.2005 349.522 59.2089 349.187 60.2181C348.682 61.7318 349.187 62.572 350.531 62.9077C351.036 63.0759 351.204 63.5804 351.204 64.0843C351.204 64.5889 350.868 64.5889 350.364 64.7571C350.196 64.7571 350.028 64.7571 349.859 64.7571C347.505 64.7571 345.32 64.7571 342.966 64.7571C342.631 64.7571 342.462 64.7571 342.294 64.7571C341.79 64.5889 341.454 64.4207 341.622 63.9168C341.622 63.5804 341.622 63.2441 342.126 63.0759C343.135 62.9077 343.976 62.4038 344.48 61.5629C344.817 61.0583 345.153 60.3863 345.489 59.7135C346.834 56.3511 348.011 52.9888 349.356 49.6264C350.701 46.0958 352.046 42.7335 353.391 39.2029C353.391 39.0347 353.559 38.6984 353.559 38.3627C353.727 37.6899 353.727 37.3542 353.054 36.8497C352.718 36.6815 352.55 36.5133 352.381 36.1776C352.213 35.3367 352.381 35.1685 353.39 35.1685C355.239 35.0003 357.257 35.1685 359.106 35.1685C359.779 35.0003 359.946 35.5049 360.115 35.8412C360.62 37.1861 361.124 38.5309 361.628 39.7082C362.637 41.8932 363.478 44.079 364.487 46.2647C366.168 50.4673 367.849 54.5025 369.53 58.7051C369.866 59.546 370.203 60.2181 370.539 61.059C370.875 61.8992 371.548 62.572 372.556 62.9084C372.893 62.9084 373.061 63.0766 373.228 63.0766C373.733 63.2448 374.069 63.5811 373.901 64.0857C373.733 64.5902 373.397 64.7584 372.893 64.7584C372.388 64.7584 371.715 64.7584 371.212 64.7584C370.035 64.7584 368.69 64.7584 367.513 64.7584L367.512 64.7571ZM355.912 41.8925C354.567 45.7595 353.222 49.4582 351.878 52.9888C352.213 53.157 352.213 53.157 352.382 53.157C354.736 53.157 357.258 53.157 359.611 53.157C360.116 53.157 360.284 52.9888 360.116 52.4842C359.107 50.131 358.267 47.777 357.426 45.4231C356.922 44.2465 356.417 43.0692 355.913 41.8925H355.912Z" fill="#5A9CFF"/>
<path fill-rule="evenodd" clip-rule="evenodd" d="M258.068 64.7604C254.706 64.7604 251.511 64.7604 248.317 64.7604C247.981 64.7604 247.813 64.7604 247.477 64.5922C247.309 64.5922 247.141 64.2559 247.141 64.0877C247.141 63.7513 247.309 63.4156 247.477 63.2474C247.477 63.0792 247.813 63.0793 247.982 63.0793C248.822 62.7436 249.663 62.239 249.831 61.0624C249.999 60.2214 250.167 59.5494 250.167 58.7084C250.167 52.8246 250.167 46.772 250.167 40.8882C250.167 40.2154 250.167 39.5434 249.999 38.8706C249.831 37.694 249.159 37.0212 247.982 36.6856C247.477 36.5174 247.309 36.181 247.477 35.6764C247.477 35.1719 247.813 35.1719 248.149 35.1719C250.167 35.1719 252.184 35.1719 254.034 35.1719C255.547 35.1719 257.06 35.1719 258.573 35.1719C258.909 35.1719 259.245 35.1719 259.413 35.6764C259.581 36.181 259.245 36.5167 258.741 36.6856C257.396 37.0219 256.891 38.1986 256.723 39.5434C256.555 41.3927 256.555 43.2421 256.555 45.0915C256.555 50.135 256.555 55.3468 256.555 60.3903C256.555 61.0631 256.723 61.2306 257.228 61.2306C259.749 61.2306 262.103 61.5669 264.457 61.0624C266.306 60.5578 267.483 59.5494 268.492 58.0364C268.66 57.7 268.997 57.1961 269.165 57.0273C269.501 56.8591 269.837 56.6909 270.173 56.6909C270.342 56.6909 270.51 57.1954 270.51 57.5311C270.342 59.0441 270.173 60.7253 270.005 62.4065C269.837 62.9111 269.837 63.4156 269.669 64.0877C269.669 64.424 269.501 64.5922 268.996 64.5922C265.297 64.5922 261.767 64.5922 258.068 64.5922C258.068 64.7604 258.068 64.7604 258.068 64.7604Z" fill="#5A9CFF"/>
<path fill-rule="evenodd" clip-rule="evenodd" d="M301.104 86.7829C301.104 86.2783 301.272 86.1101 301.272 85.7737C301.272 83.2523 301.272 80.562 301.272 77.8724C301.104 77.1996 301.104 76.5276 300.936 75.8548C300.768 75.0146 300.431 74.3418 299.591 74.0054C299.423 74.0054 299.255 73.5009 299.087 73.3327C299.255 73.1645 299.591 72.9963 299.759 72.9963C301.609 72.8281 303.458 72.8281 305.307 72.8281C305.476 72.8281 305.644 72.9963 305.812 72.9963C306.316 73.1645 306.317 73.6691 305.98 73.8373C303.963 74.5093 304.131 76.3587 303.963 77.8717C303.794 80.0567 303.963 82.4107 303.963 84.5964C303.963 87.6224 303.963 90.4802 303.963 93.3387C303.963 94.5153 303.794 94.5153 302.786 94.5153C301.609 94.6835 301.105 94.1796 300.432 93.5069C299.255 92.1621 298.078 90.8173 296.733 89.64C294.548 87.1185 292.362 84.5964 290.009 82.075C289.336 81.234 288.496 80.3938 287.823 79.7211C287.655 79.5529 287.487 79.5529 287.487 79.3854C287.319 79.5536 287.319 79.721 287.319 79.8899C287.319 83.4205 287.151 87.1192 287.319 90.6498C287.319 91.8264 287.655 92.8348 289 93.1712C289.168 93.3394 289.336 93.6758 289.505 93.844C289.336 94.0122 289 94.3485 288.832 94.3485C286.814 94.3485 284.797 94.3485 282.78 94.3485C282.612 94.3485 282.275 94.1803 282.275 93.844C282.275 93.6758 282.275 93.3394 282.444 93.3394C284.125 92.8348 284.293 91.49 284.293 90.3134C284.293 87.2874 284.293 84.4296 284.293 81.5711C284.461 79.8899 284.461 78.3769 284.461 76.6958C284.461 75.5191 284.293 74.51 282.78 74.0061C282.612 74.0061 282.444 73.6698 282.444 73.3334C282.612 73.1652 282.78 72.997 282.948 72.997C284.629 72.997 286.31 72.8288 287.823 72.997C288.159 72.997 288.664 73.3334 288.832 73.5016C291.522 76.3601 294.044 79.2179 296.566 82.0757C297.911 83.5887 299.424 84.9335 300.769 86.4465C300.769 86.6147 300.937 86.6147 301.105 86.7829H301.104Z" fill="#5A9CFF"/>
<path fill-rule="evenodd" clip-rule="evenodd" d="M332.544 83.4185C332.376 85.7724 332.208 87.6218 331.199 89.4711C329.854 91.6562 328.173 93.1699 325.651 94.0101C323.297 95.0192 320.776 95.1867 318.422 94.6829C316.068 94.1783 314.051 92.8335 312.369 90.8159C310.352 88.2945 309.848 85.2678 310.184 81.9054C310.689 77.5346 313.21 74.508 317.413 73.1632C321.28 71.9859 325.147 72.3229 328.341 74.8444C330.863 76.5255 332.208 79.0477 332.376 82.0736C332.544 82.5782 332.544 83.2503 332.544 83.4185ZM320.944 91.9926C323.97 92.1608 325.987 90.4796 326.828 88.1256C328.004 84.7633 328.004 81.4009 326.323 78.2067C324.642 74.8443 320.607 74.0034 317.749 76.3573C316.404 77.3658 315.731 79.047 315.227 80.5606C314.554 83.0821 314.722 85.6042 315.563 87.9574C316.403 90.3114 318.085 92.1608 320.943 91.9926H320.944Z" fill="#5A9CFF"/>
<path fill-rule="evenodd" clip-rule="evenodd" d="M230.999 88.2995C229.823 88.2995 228.645 88.2995 227.469 88.2995C226.964 88.1313 226.628 88.2995 226.46 88.9716C226.292 89.8125 226.124 90.4846 225.787 91.3255C225.619 91.9983 225.787 92.5022 226.628 92.8385L226.796 93.0067C227.3 93.1749 227.469 93.5113 227.469 93.847C227.3 94.1833 226.964 94.3515 226.628 94.3515C225.956 94.5197 225.115 94.5197 224.443 94.5197C223.266 94.5197 222.089 94.5197 221.08 94.3515C220.744 94.3515 220.24 94.1833 220.24 93.847C220.072 93.3424 220.408 93.1742 220.745 93.0067C221.921 92.6703 222.762 91.8294 223.099 90.6528C224.108 87.9625 225.284 85.1047 226.293 82.4144C227.133 80.0604 227.974 77.8754 228.982 75.6896C229.151 75.0176 229.151 74.6805 228.646 74.1766C228.478 74.0084 228.31 73.5039 228.31 73.3364C228.31 73.1682 228.814 73 229.151 73C230.495 73 232.008 73 233.353 73C233.521 73 233.858 73.1682 234.026 73.3364C235.371 76.6987 236.716 80.0611 238.061 83.2553C239.238 86.1131 240.415 88.9709 241.591 91.6612C241.759 92.5015 242.432 92.8378 243.105 93.006C243.44 93.1742 243.945 93.3424 243.777 93.6788C243.608 94.0144 243.272 94.3508 243.105 94.3508C240.582 94.3508 238.061 94.3508 235.707 94.3508C235.203 94.3508 234.867 94.3508 234.699 93.6788C234.53 93.1742 235.034 93.006 235.371 92.8378C236.212 92.6696 236.38 92.1658 236.212 91.6612C235.875 90.6528 235.539 89.6437 235.203 88.6352C235.203 88.467 234.698 88.2995 234.53 88.2995C233.353 88.2995 232.176 88.2995 230.999 88.2995ZM230.831 77.7079C230.831 77.8761 230.663 78.0436 230.663 78.0436C229.823 80.3975 228.982 82.7514 228.141 84.9365C227.805 85.7767 227.973 85.7767 228.646 85.7767C230.327 85.7767 231.84 85.7767 233.521 85.7767C234.026 85.7767 234.026 85.6085 233.858 85.2722C233.017 82.9182 232.177 80.565 231.168 78.211C231.168 78.0429 231 78.0429 230.832 77.7065L230.831 77.7079Z" fill="#5A9CFF"/>
<path fill-rule="evenodd" clip-rule="evenodd" d="M255.04 94.8546C252.686 94.8546 250.669 94.6864 248.82 94.0136C248.147 93.8455 247.811 93.5091 247.811 92.837C247.643 91.6604 247.306 90.4831 247.139 89.3065C246.971 88.8019 246.802 88.1298 247.475 87.7935C248.147 87.4571 248.315 88.1298 248.652 88.6337C249.324 89.3065 249.828 89.9785 250.333 90.6513C252.014 92.1643 253.863 92.5006 256.049 92.1643C257.899 91.6597 258.907 89.9785 258.234 88.1291C258.066 87.6246 257.394 87.1207 256.889 86.7843C255.545 86.1116 254.2 85.6077 252.855 85.1032C251.174 84.4311 249.661 83.422 248.652 81.909C248.315 81.4044 248.147 80.7323 247.979 80.0596C247.139 76.0252 249.828 73.1667 253.359 72.6621C255.88 72.1576 258.402 72.6621 260.924 73.1667C261.092 73.3349 261.428 73.5024 261.428 73.6713C261.597 75.0161 261.765 76.3609 262.101 77.5382C262.101 77.8745 262.101 78.2109 262.101 78.5466C261.932 78.7148 261.765 79.0512 261.596 79.0512C261.428 79.0512 261.091 78.883 260.923 78.7148C260.419 78.042 260.083 77.37 259.578 76.6972C258.738 75.3524 256.384 74.5115 255.039 75.0161C254.704 75.0161 254.199 75.1842 253.863 75.1842C252.854 75.5206 252.182 76.3609 252.013 77.5382C251.845 78.5466 252.518 79.3875 253.526 79.7232C255.039 80.5642 256.721 81.068 258.402 81.7408C262.604 83.422 263.95 87.961 261.932 91.4915C260.923 93.3409 259.243 94.1811 257.225 94.5175C256.385 94.6857 255.544 94.8539 255.039 94.8539L255.04 94.8546Z" fill="#5A9CFF"/>
<path fill-rule="evenodd" clip-rule="evenodd" d="M209.986 72.4929C211.499 72.6611 213.18 72.9974 215.029 73.3331C215.534 73.5013 215.869 73.6695 215.869 74.3422C216.206 75.6871 216.374 76.8637 216.71 78.2092C216.71 78.5449 216.374 78.8819 216.374 79.0494C216.038 78.8812 215.534 78.8812 215.365 78.5449C215.029 78.3767 214.86 77.8728 214.692 77.3682C213.179 75.1832 209.817 74.6786 207.631 75.5189C204.605 76.8637 203.428 79.2176 203.092 82.2436C202.756 84.2612 203.092 86.278 203.765 88.1274C204.605 90.3131 206.623 91.8261 209.145 91.8261C211.162 91.9943 213.012 91.4904 214.693 90.1449C215.197 89.8093 215.702 89.3047 216.206 88.8001L216.542 88.632C216.71 88.632 216.879 88.9683 216.879 88.9683C216.71 90.3131 216.542 91.8261 216.206 93.0034C216.038 93.508 215.029 93.8437 214.356 94.1801C211.162 95.1885 207.968 95.3567 204.773 94.1801C200.738 92.4989 198.385 89.4729 198.049 84.9332C197.88 83.252 197.88 81.4027 198.553 79.7215C200.066 76.0227 202.756 73.6695 206.623 72.8286C207.631 72.6604 208.64 72.6604 209.985 72.4922L209.986 72.4929Z" fill="#5A9CFF"/>
<path fill-rule="evenodd" clip-rule="evenodd" d="M272.693 72.8281C273.871 72.8281 275.047 72.8281 276.224 72.8281C276.56 72.9963 276.896 73.1645 277.064 73.3327C276.896 73.5009 276.896 74.0054 276.56 74.0054C275.383 74.51 275.215 75.3502 275.047 76.3594C275.047 78.3769 275.047 80.2263 275.047 82.0757C275.047 84.9335 275.047 87.7913 275.047 90.6498C275.047 90.9862 275.047 91.3218 275.215 91.6582C275.215 92.331 275.719 92.8348 276.56 93.003L276.728 93.1712C276.896 93.3394 277.064 93.5076 277.232 93.844C277.232 94.1803 276.896 94.3485 276.56 94.3485C274.71 94.3485 272.693 94.3485 270.844 94.3485C270.171 94.3485 269.667 94.5167 268.995 94.3485C268.658 94.3485 268.322 94.1803 268.322 94.0122C268.154 93.6765 268.322 93.3401 268.658 93.1719C270.003 92.6673 270.171 91.6589 270.171 90.4823C270.171 85.9433 270.171 81.4036 270.171 76.8646C270.171 76.5283 270.171 76.0244 270.003 75.688C270.003 74.8478 269.498 74.3432 268.658 74.0068C268.322 73.8386 268.322 73.5023 268.49 73.1666C268.49 72.9984 268.826 72.9984 268.995 72.9984C270.339 72.8302 271.516 72.8302 272.693 72.8302V72.8281Z" fill="#5A9CFF"/>
<path fill-rule="evenodd" clip-rule="evenodd" d="M232.176 64.9279C230.158 65.0961 228.645 62.9103 228.814 61.3973C228.814 59.5479 230.327 58.2031 232.176 58.2031C234.362 58.2031 235.875 59.8843 235.706 61.5655C235.538 63.2467 234.193 65.0961 232.176 64.9279Z" fill="#5A9CFF"/>
<defs>
<clipPath id="clip0_3975_10918">
<rect width="130" height="130" fill="white"/>
</clipPath>
</defs>
</svg>
