<svg width="1200" height="313" viewBox="0 0 1200 313" fill="none" xmlns="http://www.w3.org/2000/svg">
<path d="M303.83 161.153C303.882 159.785 304.009 159.557 304.226 160.439C304.401 161.155 304.201 165.531 303.78 170.166C301.038 200.411 289.146 229.652 270.061 253.088C265.383 258.83 251.489 273.09 247.068 276.686L244.413 278.845L242.633 274.14C240.718 269.081 236.94 262.773 234.266 260.17L232.61 258.561L238.902 254.783C268.222 237.185 287.842 212.96 298.697 180.952C301.149 173.724 303.731 163.766 303.83 161.153ZM140.72 6.01465C113.158 14.3727 96.6303 25.8779 79.3789 43.2998C60.4159 62.4499 45.5142 90.4616 40.4307 116.337C36.9468 134.071 37.5487 157.06 41.958 174.702C44.6959 185.654 51.5223 202.136 57.5078 212.243L59.1592 215.031L50.8779 220.716C39.7947 228.325 28.8634 234.799 27.8057 234.382C27.3339 234.194 25.4445 231.46 23.6074 228.307C11.3419 207.255 4.78982 181.984 4.80664 155.79C4.84357 98.3056 40.1822 43.2719 90.2041 20.4482C107.008 12.7818 124.256 5.46494 139.749 5.35156L142.984 5.32812L140.72 6.01465ZM289.568 115.328C289.833 117.059 290.537 119.323 291.134 120.359C292.661 123.013 294.912 124.577 298.101 125.199C300.831 125.732 300.62 126.103 297.136 126.894C293.306 127.763 290.117 132.04 289.35 137.338C289.113 138.969 289.094 138.959 288.62 137.002C287.056 130.543 284.974 128.075 279.809 126.562L276.902 125.711L279.614 125.193C284.656 124.23 287.364 121.106 288.569 114.864L289.088 112.181L289.568 115.328ZM262.395 54.8711C262.437 52.8853 262.594 53.1791 263.31 56.5879C263.784 58.8506 264.605 61.568 265.137 62.626C267.107 66.5544 271.029 69.1382 276.264 69.958L279.491 70.4629L275.382 71.3359C268.489 72.8004 264.954 76.5694 263.505 84.0049L262.721 88.0303L262.195 84.3408C261.161 77.0823 256.752 72.4836 249.396 70.9902C247.567 70.6186 247.106 70.3725 248.153 70.3262C251.267 70.1887 255.985 68.0778 258.115 65.8701C260.435 63.4651 262.314 58.6366 262.395 54.8711Z" fill="#5A9CFF"/>
<path fill-rule="evenodd" clip-rule="evenodd" d="M166.978 118.552C155.451 120.006 156.488 119.379 153.744 126.553C152.425 129.999 151.103 133.135 150.806 133.523C149.987 134.589 138.97 137.798 136.951 137.558C135.542 137.39 134.622 136.426 132.434 132.818C128.726 126.706 124.99 123.099 120.99 121.771C115.178 119.84 110.585 121.435 107.99 126.284C106.747 128.607 106.572 129.937 106.572 137.024C106.572 144.747 106.663 145.303 108.588 149.319C111.056 154.469 116.572 160.077 122.05 163.007C125.137 164.659 126.803 165.123 129.784 165.167L133.584 165.222L135.094 170.451C137.485 178.736 139.394 182.469 142.561 185.06C149.548 190.773 169.232 201.374 186.766 208.865C203.311 215.933 214.49 213.794 214.411 203.572C214.369 198.144 211.46 195.29 205.949 195.272L203.086 195.262L204.655 193.583C206.989 191.085 209.349 190.085 212.917 190.085C216.314 190.085 216.901 189.551 216.901 186.457C216.901 183.962 214.499 183.427 205.618 183.941C200.405 184.244 197.401 184.713 196.377 185.384C194.178 186.825 194.093 186.207 196.068 183.104C197.608 180.685 198.024 180.41 199.63 180.755C200.63 180.971 204.045 180.621 207.218 179.98C212.126 178.988 213.333 178.939 215.299 179.65C218.634 180.856 219.743 179.799 219.168 175.964C218.29 170.109 216.769 168.82 211.692 169.632C204.374 170.802 200.648 164.492 205.685 159.457C208.234 156.908 209.549 156.388 208.826 158.216C208.58 158.839 208.226 160.255 208.04 161.363L207.701 163.377L213.757 163.849C217.088 164.109 220.977 164.728 222.401 165.223C227.461 166.984 230.49 165.798 230.49 162.055C230.49 161.108 227.875 155.147 224.681 148.807C221.486 142.467 218.819 136.713 218.755 136.02C218.448 132.736 218.994 131.035 221.107 128.697C222.353 127.318 223.372 125.608 223.372 124.896C223.372 123.798 222.797 123.537 219.578 123.173C217.492 122.937 211.449 121.697 206.151 120.418C197.311 118.283 195.584 118.075 185.193 117.887C178.29 117.762 171.179 118.022 166.978 118.552ZM214.782 129.978C214.695 129.444 211.217 127.938 206.224 126.27C197.321 123.297 194.425 122.973 189.723 124.423C186.002 125.571 178.744 129.948 177.531 131.774C176.636 133.122 176.664 133.154 178.229 132.559C180.343 131.756 192.175 130.38 194.569 130.661C196.255 130.858 196.009 131.1 191.756 133.424C185.237 136.985 184.815 137.673 189.159 137.665C191.103 137.661 194.431 138.289 196.71 139.089C200.031 140.256 201.13 140.39 202.654 139.815C204.451 139.136 204.563 139.207 205.55 141.675C206.116 143.089 206.933 144.132 207.37 143.999C208.37 143.695 214.978 131.193 214.782 129.978ZM127.602 142.203C128.922 135.985 127.252 131.536 122.237 127.903C118.673 125.321 115.26 125.325 112.669 127.915C110.881 129.704 110.778 130.1 110.782 135.195C110.784 138.158 111.12 141.748 111.529 143.171L112.272 145.76L113.077 141.554C113.903 137.242 115.794 131.847 116.48 131.847C116.691 131.847 117.813 132.768 118.973 133.892L121.084 135.937L119.166 138.121C117.725 139.762 117.249 140.947 117.249 142.891C117.249 147.888 120.081 151.907 123.602 151.907C124.447 151.907 126 152.521 127.054 153.272C128.108 154.023 129.139 154.469 129.344 154.264C129.549 154.059 129.058 152.127 128.251 149.97C126.899 146.354 126.849 145.753 127.602 142.203Z" fill="#5A9CFF"/>
<path fill-rule="evenodd" clip-rule="evenodd" d="M155.104 42.3238C132.319 44.126 111.14 50.7917 102.63 58.8395C99.8183 61.4991 99.0858 62.6606 98.4859 65.4133C97.9314 67.9557 96.0322 89.6339 95.9131 94.7782C95.9008 95.3166 96.8637 95.1464 98.9687 94.2392C110.068 89.4533 138.299 83.3817 160.503 81.0062C179.238 79.0015 206.679 80.464 213.665 83.8392C215.854 84.8965 216.012 85.2252 218.356 93.6154C219.691 98.3909 220.636 102.444 220.457 102.623C220.279 102.802 214.819 102.31 208.325 101.529C201.831 100.748 192.295 99.7893 187.135 99.3972C175.101 98.4835 133.048 99.1474 118.543 100.48C86.1505 103.456 60.9793 109.897 57.685 116.053C56.5571 118.16 56.7305 120.732 58.1263 122.601C59.634 124.62 66.4757 128.812 71.0694 130.531C75.5718 132.215 87.147 134.557 89.6894 134.299C90.9881 134.167 89.8233 133.803 86.3666 133.262C76.5308 131.722 68.6189 128.415 63.8589 123.854C60.2546 120.4 60.1517 118.852 63.3787 116.649C68.3814 113.233 89.593 108.008 108.078 105.637C133.365 102.394 176.392 102.858 198.542 106.614C219.737 110.208 249.348 118.163 257.798 122.532L259.739 123.536L258.287 125.082C255.796 127.734 246.538 130.094 235.472 130.898C230.104 131.288 229.164 131.521 229.342 132.412C229.898 135.178 255.403 131.564 261.374 127.874C266.146 124.924 262.771 119.135 253.427 114.241C248.8 111.818 228.711 104.67 226.528 104.67C225.821 104.67 225.206 104.078 225.014 103.214C223.143 94.7879 214.553 61.1561 213.304 57.368C209.863 46.9298 205.295 43.9629 190.509 42.5607C184.242 41.966 161.547 41.8146 155.104 42.3238ZM193.929 52.2282C199.486 54.0058 202.327 56.0654 203.303 59.0246C203.886 60.7885 203.862 61.6641 203.194 63.0566C201.847 65.8663 199.785 66.5832 193.818 66.3173C189.448 66.1225 187.876 65.7375 184.759 64.0978C173.304 58.0734 171.429 57.3117 162.385 55.0087C157.137 53.6725 152.842 52.3854 152.841 52.1486C152.84 51.9124 155.096 51.5268 157.854 51.2919C160.612 51.0576 163.16 50.7477 163.516 50.6027C163.872 50.4584 169.841 50.439 176.781 50.56C187.681 50.7496 190.016 50.9767 193.929 52.2282ZM97.2888 189.431C96.3182 192.216 91.4048 199.622 87.9436 203.52L84.9702 206.868L91.324 222.58C94.8182 231.223 98.0259 239.04 98.4523 239.953C99.3194 241.805 99.4786 241.863 114.626 245.778C120.123 247.199 124.698 248.439 124.792 248.533C124.887 248.628 122.864 251.131 120.298 254.095C117.731 257.06 115.244 260.013 114.771 260.656C114.001 261.706 114.719 262.761 121.666 270.789C134.078 285.133 144.995 296.789 147.555 298.432C150.126 300.081 155.417 301.039 166.094 301.79L172.464 302.238L164.04 285.796C147.225 252.978 137.405 237.698 115.628 210.469C111.643 205.486 106.285 198.432 103.72 194.792C101.156 191.153 98.8114 188.023 98.5099 187.838C98.209 187.651 97.6589 188.368 97.2888 189.431ZM79.4796 211.302C78.1822 213.401 53.6847 230.458 38.3176 239.962C32.4746 244.163 32.4746 244.163 32.4746 244.163C34.8842 247.74 38.4884 251.38 39.6911 251.38C45.3234 251.625 46.4075 250.955 51.1766 253.044C65.5614 259.345 75.1105 267.903 84.5703 282.971C86.5284 286.089 88.1299 288.468 88.1299 288.257C88.1299 288.046 87.3696 285.745 86.4397 283.143C83.9445 276.161 78.9367 266.725 74.5436 260.728C72.414 257.82 70.982 255.442 71.3619 255.442C72.282 255.442 81.1698 261.419 85.2044 264.751C86.9768 266.215 91.3447 270.142 94.9108 273.477C100.575 278.774 102.337 279.991 108.837 283.094C118.482 287.7 126.429 291.127 126.74 290.815C127.175 290.381 115.617 275.388 110.196 269.354C107.319 266.151 104.965 263.239 104.966 262.883C104.967 262.527 106.855 259.998 109.162 257.263C112.591 253.2 113.152 252.23 112.229 251.961C111.61 251.779 108.626 251.047 105.601 250.334C102.576 249.621 98.5079 248.488 96.5615 247.817L93.0219 246.595L89.9573 237.592C85.3416 224.027 80.898 211.83 80.3513 211.221C80.0827 210.923 79.6906 210.959 79.4796 211.302ZM179.657 227.263L178.326 230.085L180.532 233.063C181.745 234.7 184.051 238.294 185.657 241.05C187.263 243.804 188.376 245.476 188.129 244.765C187.881 244.053 186.691 240.267 185.483 236.352C182.022 225.129 181.763 224.379 181.364 224.411C181.157 224.427 180.389 225.71 179.657 227.263ZM166.238 241.044C164.924 243.802 163.773 246.408 163.682 246.834C163.591 247.26 165.845 249.516 168.693 251.846C172.876 255.269 174.305 256.083 176.139 256.085C177.386 256.087 179.413 256.377 180.642 256.729C183.275 257.484 183.82 257.081 184.319 254.004C184.614 252.186 184.065 250.242 181.686 244.677C180.032 240.81 178.196 237.283 177.606 236.838C177.017 236.393 174.755 236.029 172.581 236.029H168.628L166.238 241.044ZM191.017 238.166C191.017 238.314 192.507 241.608 194.327 245.483C200.04 257.643 206.425 274.06 214.023 296.115C214.357 297.087 215.834 296.859 219.725 295.232C221.5 294.491 222.061 293.922 221.819 293.111C221.636 292.501 221.017 289.236 220.442 285.855C217.688 269.65 216.907 267.838 209.217 259.809C207.598 258.119 206.517 256.736 206.815 256.736C208.532 256.736 219.734 263.61 221.634 265.83C224.048 268.651 230.525 280.806 231.786 284.884C232.952 288.652 233.387 288.855 236.005 286.857C238.2 285.184 238.321 284.906 237.947 282.39C237.278 277.891 231.623 267.118 228.108 263.647C224.478 260.06 209.224 249.101 199.429 243.039L199.406 243.025C192.111 238.511 191.16 237.923 191.036 238.064C191.017 238.085 191.017 238.122 191.017 238.166ZM175.835 262.138C174.735 262.943 174.678 263.702 175.1 271.85C175.546 280.446 175.657 280.96 179.148 290.552C181.121 295.976 182.989 300.889 183.299 301.469C183.917 302.628 185.322 302.605 195.762 301.267L201.477 300.535L201.046 298.242C200.329 294.42 196.254 284.818 190.621 273.68C187.685 267.873 184.936 262.705 184.511 262.194C183.516 260.994 177.453 260.955 175.835 262.138Z" fill="#B61B17"/>
<path d="M113.852 193.759C125.669 204.374 142.286 215.522 158.151 223.479C164.129 226.477 165.057 226.788 164.057 225.462C163.404 224.597 160.413 222.034 157.41 219.767C141.833 208.009 133.4 196.877 128.649 181.801C127.717 178.847 126.955 176.041 126.955 175.566C126.955 175.033 125.789 174.528 123.908 174.245C122.231 173.994 118.955 173.068 116.628 172.188C114.3 171.308 111.95 170.444 111.405 170.268C110.582 170.003 110.28 171.24 109.618 177.591C108.892 184.564 108.502 187.152 109.434 189.112C110.103 190.521 111.454 191.605 113.852 193.759Z" fill="#5A9CFF"/>
<path fill-rule="evenodd" clip-rule="evenodd" d="M488.735 130.557C487.474 132.449 486.212 134.969 485.584 136.861C476.127 155.773 466.672 174.685 457.215 194.228C454.695 198.64 452.172 203.682 450.28 208.097C449.649 210.62 447.757 210.62 445.868 210.62C443.976 210.62 442.084 210.62 440.825 208.097C433.26 190.446 425.697 173.423 418.129 156.403C414.348 148.207 410.566 139.383 406.782 131.187C406.782 129.926 406.152 129.295 405.521 128.665C405.521 128.665 405.521 128.665 404.89 128.665C404.89 131.187 404.26 133.077 404.26 135.599C403.629 152.619 402.368 170.273 401.737 187.293C401.737 190.444 401.737 193.597 401.737 196.12C402.368 200.532 404.26 202.424 408.672 203.685C410.564 204.316 413.084 204.946 412.456 207.469C412.456 208.73 411.825 209.361 411.195 209.992C409.933 210.622 408.672 210.622 407.411 210.622C397.956 210.622 389.129 210.622 380.302 210.622C379.041 210.622 377.78 210.622 377.152 210.622C376.521 209.991 375.26 208.73 375.26 208.1C375.26 206.838 375.89 205.579 376.521 204.949C377.152 204.318 378.413 204.318 379.044 203.687C382.825 201.795 385.348 199.906 385.348 195.494C385.978 186.667 387.24 177.841 387.87 169.017C388.501 153.889 389.762 138.127 391.021 122.996C391.021 120.474 391.021 117.954 391.021 115.431C391.021 111.016 389.129 107.235 384.717 105.346C383.458 104.715 382.197 103.454 382.825 101.562C382.825 99.6697 384.717 99.6697 385.978 99.6697C390.39 99.0391 394.172 99.0391 398.586 99.0391C403.629 99.0391 408.672 99.0391 413.715 99.0391C416.237 99.0391 417.499 99.6697 418.127 102.192C423.169 112.278 428.212 122.996 432.627 133.713C438.3 145.69 443.976 157.667 449.647 169.647C450.277 170.909 450.277 172.798 450.908 174.69C453.431 170.278 455.32 167.125 456.581 163.343C462.255 151.997 467.928 140.647 472.971 129.3C477.383 120.474 481.798 111.65 485.579 102.823C486.84 100.3 488.73 99.6723 491.883 99.6723C498.187 99.6723 504.491 99.6723 511.426 99.6723C513.948 99.6723 517.099 99.6723 519.622 99.6723C521.514 99.6723 522.144 100.303 522.144 102.195C522.144 103.456 522.144 104.715 520.252 105.346C513.318 107.238 512.056 110.388 512.056 118.584C512.687 133.713 513.318 148.213 513.948 163.343C514.579 172.798 515.21 182.255 515.21 191.71C515.84 193.602 515.84 195.494 516.471 196.753C517.102 200.534 518.994 202.426 522.144 203.687C523.406 203.687 524.036 203.688 524.667 204.318C525.298 205.579 525.926 206.841 526.559 208.102C526.559 208.733 525.298 209.994 524.036 209.994C523.406 210.625 522.144 210.625 521.514 210.625C508.906 210.625 496.928 210.625 484.951 210.625C482.428 210.625 480.536 210.625 479.908 208.102C479.278 205.582 480.539 204.951 483.692 203.69C488.735 202.429 490.627 200.539 490.627 195.497C491.257 191.713 491.258 187.301 491.258 183.519C490.627 166.499 489.996 149.476 489.366 132.456C489.366 131.826 489.366 131.198 489.366 131.198C488.735 130.567 488.735 130.567 488.735 130.567V130.557Z" fill="#5A9CFF"/>
<path fill-rule="evenodd" clip-rule="evenodd" d="M546.734 161.453C546.734 151.368 546.734 140.649 546.734 130.564C546.734 126.152 546.734 121.737 546.103 117.325C546.103 114.803 545.472 112.913 544.844 110.391C543.583 107.24 541.06 105.978 538.54 105.348C536.648 104.717 536.018 104.087 536.018 101.564C536.648 99.6719 537.91 99.6719 539.171 99.6719C550.518 99.6719 561.234 99.6719 572.583 99.6719C582.038 99.6719 591.495 99.6719 600.95 100.933C610.405 102.195 619.231 105.976 624.905 114.803C627.427 118.587 629.317 123.629 629.317 128.672C629.947 143.172 624.905 153.257 611.035 159.561C608.513 160.823 607.885 162.084 609.143 164.604C616.078 175.323 622.382 186.67 628.686 197.386C631.209 201.17 634.359 203.69 638.143 204.32C639.402 204.32 640.035 204.951 640.666 205.582C641.297 206.212 642.558 207.474 642.558 208.732C641.927 209.363 640.666 210.624 640.035 210.624C631.209 210.624 622.385 210.624 614.189 209.994C609.777 209.994 607.254 206.21 605.362 203.059C599.058 192.34 592.123 181.624 585.819 170.277C583.927 166.494 581.407 165.235 577.626 165.863C577.626 165.863 576.995 165.863 576.364 165.863C571.322 165.863 571.322 165.863 571.322 170.277C571.322 177.212 571.322 184.147 571.322 191.082C571.952 193.602 571.952 196.124 572.583 198.016C573.842 201.17 575.734 203.059 578.256 203.69C578.887 204.32 579.515 204.32 580.148 204.32C582.04 204.951 583.299 206.212 583.299 208.104C583.299 210.627 581.407 210.627 579.515 210.627C577.623 210.627 575.734 210.627 573.842 210.627C563.756 210.627 553.038 210.627 542.322 210.627C541.691 210.627 540.43 210.627 539.171 210.627C538.54 209.996 537.279 209.366 536.648 208.104C536.648 206.843 537.279 205.584 538.54 204.954C541.691 203.692 544.214 201.803 545.475 199.28C546.106 197.388 546.106 194.866 546.106 192.976C546.106 182.891 546.106 172.172 546.106 161.456C546.736 161.456 546.736 161.456 546.736 161.456L546.734 161.453ZM571.319 132.453C571.319 138.127 571.319 144.431 571.319 150.104C571.319 151.996 571.95 153.257 573.842 152.627C578.884 152.627 583.927 152.627 588.342 151.996C594.646 150.104 600.319 146.953 602.211 140.019C602.842 136.237 603.472 132.453 602.842 129.303C602.211 122.368 599.06 116.695 592.126 114.175C585.822 111.652 579.518 112.283 573.214 112.283C571.322 112.283 571.322 113.541 571.322 114.803C571.322 121.107 571.322 126.78 571.322 132.453H571.319Z" fill="#5A9CFF"/>
<path fill-rule="evenodd" clip-rule="evenodd" d="M1049.8 172.786C1049.8 171.524 1050.43 170.894 1050.43 169.635C1050.43 153.246 1050.43 136.854 1050.43 119.834C1050.43 117.942 1049.8 116.05 1049.8 114.16C1049.17 109.748 1046.65 106.595 1042.23 105.334C1040.34 104.703 1039.08 103.442 1039.71 101.55C1039.71 99.6576 1041.6 99.6576 1042.86 99.6576C1052.95 99.6576 1063.03 99.6576 1073.12 99.6576C1073.75 99.6576 1075.65 100.919 1075.65 100.919C1075.65 102.18 1075.01 104.7 1074.38 104.7C1066.82 107.223 1065.56 113.527 1065.56 119.831C1064.93 143.155 1064.93 166.482 1064.3 189.806C1064.3 195.482 1064.3 201.155 1064.3 207.459C1064.3 210.61 1063.67 210.61 1060.51 211.243C1059.88 211.243 1058.62 210.613 1057.36 211.243C1052.95 211.874 1049.8 209.351 1046.64 206.201C1042.23 201.158 1037.82 196.115 1032.77 191.072C1024.58 181.615 1016.38 172.791 1008.82 163.964C999.364 153.879 989.907 143.16 980.452 132.444C980.452 132.444 980.452 132.444 979.821 131.814C979.191 133.075 979.19 133.706 979.19 134.964C979.19 153.876 979.19 172.788 979.19 191.701C979.19 192.962 979.191 194.851 979.821 196.113C980.452 199.897 982.344 203.047 986.125 203.678C987.387 204.309 988.017 204.309 988.648 204.939C990.54 206.201 990.54 209.351 988.648 209.982C987.386 210.613 986.756 210.613 985.497 210.613C976.671 210.613 967.846 210.613 959.02 210.613C957.758 210.613 956.497 210.613 955.236 209.982C953.974 209.982 953.344 208.721 953.344 208.09C953.344 206.829 953.974 204.939 954.605 204.939C961.54 203.047 963.432 197.374 963.432 191.07C964.062 182.243 963.432 173.417 964.062 164.592C964.062 150.092 964.062 135.592 964.062 121.095C964.062 117.311 964.062 112.899 961.542 109.748C960.281 108.487 959.02 107.226 957.128 105.964C956.497 105.334 955.236 105.334 954.608 104.703C953.346 103.444 953.346 102.183 953.346 101.552C953.346 100.921 954.608 99.6602 955.238 99.6602C961.542 99.6602 968.477 99.6602 974.781 99.6602C980.454 98.3988 983.605 100.921 986.758 104.703C991.171 110.376 996.213 115.422 1001.26 120.464C1008.82 129.291 1017.02 138.115 1025.21 146.942C1031.52 153.876 1038.45 160.811 1044.76 167.746C1046.01 169.004 1047.91 170.896 1049.17 172.788C1049.8 172.788 1049.8 172.788 1049.8 172.788V172.786Z" fill="#5A9CFF"/>
<path fill-rule="evenodd" clip-rule="evenodd" d="M833.563 148.834C833.563 141.269 834.194 133.073 833.563 124.879C833.563 120.467 832.932 116.053 832.302 111.641C831.671 107.859 829.151 106.598 825.998 105.337C825.367 104.706 824.106 104.075 823.478 103.445C822.847 101.553 823.477 99.6606 825.998 99.6606C831.674 99.6606 837.344 99.6606 843.651 99.6606C849.955 99.0299 856.259 99.0299 862.563 99.0299C863.194 99.0299 864.455 99.0299 865.714 99.6606C866.344 99.6606 868.234 100.922 868.234 100.922C868.234 102.183 866.975 103.445 866.342 104.703C866.342 104.703 866.342 104.703 865.711 105.334C860.668 106.595 858.776 110.377 858.146 115.419C858.146 123.613 858.146 131.181 857.515 138.743C857.515 150.721 857.515 162.698 858.146 174.676C858.146 183.502 862.558 190.437 870.754 194.218C881.472 199.892 893.45 199.892 904.166 194.218C909.839 191.068 912.993 186.022 914.251 180.349C915.513 177.198 916.143 173.414 916.143 169.633C916.774 154.502 916.774 139.374 916.774 124.243C916.774 119.201 915.513 114.786 914.251 110.374C913.621 107.854 911.101 105.962 908.578 105.331C906.686 104.701 905.427 104.07 905.427 102.181C906.058 100.919 906.058 99.658 907.95 99.658C909.209 99.658 910.473 99.0273 911.731 99.0273C920.558 99.0273 930.013 99.0273 938.839 99.658C940.101 99.658 941.362 99.658 942.621 100.289C943.882 101.55 942.621 104.073 940.729 104.701C934.425 107.223 933.163 112.266 933.163 118.57C932.533 134.331 932.533 150.09 931.902 166.482C931.271 175.309 930.641 184.133 925.598 192.329C921.186 200.525 914.251 206.829 904.794 209.982C892.186 215.025 878.947 214.394 865.078 211.244C858.143 209.352 850.578 206.829 844.904 201.158C837.97 194.224 834.188 185.397 833.558 175.942C833.558 167.116 833.558 157.661 833.558 148.834H833.563Z" fill="#5A9CFF"/>
<path fill-rule="evenodd" clip-rule="evenodd" d="M1175.88 210.609C1169.57 210.609 1163.27 210.609 1157.59 210.609C1156.33 210.609 1155.07 210.609 1153.81 210.609C1151.92 209.978 1151.29 208.717 1151.29 206.825C1151.29 205.566 1151.92 204.302 1153.81 203.674C1159.48 201.782 1160.74 199.262 1158.85 192.958C1157.59 189.805 1155.7 186.024 1155.07 182.242C1153.81 180.35 1152.55 179.72 1150.66 179.72C1139.94 179.72 1129.22 179.72 1119.14 179.089C1117.87 179.089 1116.61 179.72 1115.35 179.089C1112.2 178.458 1111.57 179.72 1110.94 182.242C1109.68 186.024 1108.42 189.805 1107.16 193.589C1105.27 199.265 1107.16 202.416 1112.2 203.674C1114.09 204.305 1114.72 206.197 1114.72 208.086C1114.72 209.978 1113.46 209.978 1111.57 210.609C1110.94 210.609 1110.31 210.609 1109.68 210.609C1100.85 210.609 1092.66 210.609 1083.83 210.609C1082.58 210.609 1081.94 210.609 1081.31 210.609C1079.42 209.978 1078.16 209.348 1078.79 207.458C1078.79 206.197 1078.79 204.936 1080.68 204.305C1084.47 203.674 1087.62 201.785 1089.51 198.632C1090.77 196.74 1092.03 194.22 1093.29 191.697C1098.34 179.089 1102.75 166.481 1107.79 153.873C1112.84 140.634 1117.88 128.026 1122.92 114.787C1122.92 114.157 1123.55 112.895 1123.55 111.637C1124.18 109.114 1124.18 107.855 1121.66 105.963C1120.4 105.333 1119.77 104.702 1119.14 103.443C1118.51 100.29 1119.14 99.6592 1122.92 99.6592C1129.85 99.0285 1137.42 99.6592 1144.35 99.6592C1146.88 99.0285 1147.51 100.921 1148.14 102.182C1150.03 107.225 1151.92 112.267 1153.81 116.682C1157.6 124.875 1160.75 133.071 1164.53 141.267C1170.83 157.026 1177.14 172.157 1183.44 187.916C1184.7 191.069 1185.97 193.589 1187.22 196.742C1188.49 199.893 1191.01 202.416 1194.79 203.677C1196.05 203.677 1196.68 204.308 1197.31 204.308C1199.2 204.938 1200.46 206.2 1199.83 208.092C1199.2 209.984 1197.94 210.614 1196.05 210.614C1194.16 210.614 1191.64 210.614 1189.75 210.614C1185.34 210.614 1180.29 210.614 1175.88 210.614L1175.88 210.609ZM1132.38 124.873C1127.33 139.373 1122.29 153.242 1117.25 166.481C1118.51 167.112 1118.51 167.112 1119.14 167.112C1127.97 167.112 1137.42 167.112 1146.25 167.112C1148.14 167.112 1148.77 166.481 1148.14 164.589C1144.36 155.765 1141.21 146.938 1138.06 138.111C1136.16 133.699 1134.27 129.285 1132.38 124.873H1132.38Z" fill="#5A9CFF"/>
<path fill-rule="evenodd" clip-rule="evenodd" d="M765.487 210.622C752.879 210.622 740.901 210.622 728.924 210.622C727.662 210.622 727.032 210.622 725.773 209.991C725.142 209.991 724.512 208.73 724.512 208.099C724.512 206.838 725.142 205.579 725.773 204.948C725.773 204.318 727.032 204.318 727.665 204.318C730.816 203.059 733.969 201.167 734.6 196.755C735.23 193.602 735.861 191.082 735.861 187.928C735.861 165.865 735.861 143.169 735.861 121.107C735.861 118.584 735.861 116.064 735.23 113.541C734.6 109.129 732.08 106.607 727.665 105.348C725.773 104.717 725.142 103.456 725.773 101.564C725.773 99.6719 727.032 99.6719 728.293 99.6719C735.858 99.6719 743.424 99.6719 750.358 99.6719C756.032 99.6719 761.705 99.6719 767.379 99.6719C768.64 99.6719 769.901 99.6719 770.529 101.564C771.16 103.456 769.899 104.715 768.009 105.348C762.967 106.609 761.075 111.021 760.444 116.064C759.813 122.999 759.813 129.933 759.813 136.868C759.813 155.78 759.813 175.323 759.813 194.235C759.813 196.758 760.444 197.386 762.336 197.386C771.791 197.386 780.617 198.647 789.444 196.755C796.379 194.863 800.791 191.082 804.575 185.408C805.205 184.147 806.467 182.257 807.097 181.624C808.356 180.994 809.617 180.363 810.879 180.363C811.509 180.363 812.14 182.255 812.14 183.514C811.509 189.187 810.879 195.491 810.248 201.795C809.617 203.687 809.617 205.579 808.987 208.099C808.987 209.36 808.356 209.991 806.464 209.991C792.595 209.991 779.356 209.991 765.487 209.991C765.487 210.622 765.487 210.622 765.487 210.622Z" fill="#5A9CFF"/>
<path fill-rule="evenodd" clip-rule="evenodd" d="M668.402 211.251C660.837 211.882 655.163 203.686 655.794 198.013C655.794 191.078 661.467 186.035 668.402 186.035C676.598 186.035 682.271 192.339 681.641 198.643C681.01 204.947 675.967 211.882 668.402 211.251Z" fill="#5A9CFF"/>
</svg>
