<svg xmlns="http://www.w3.org/2000/svg" style="display: none;">
  <symbol id="en" viewBox="0 0 16 16">
    <rect width="16" height="16" fill="#012169"/>
    <path d="M0 0L16 10.67M16 0L0 10.67" stroke="#fff" stroke-width="2"/>
    <path d="M0 0L16 10.67M16 0L0 10.67" stroke="#C8102E" stroke-width="1.2"/>
    <path d="M8 0v16M0 8h16" stroke="#fff" stroke-width="3"/>
    <path d="M8 0v16M0 8h16" stroke="#C8102E" stroke-width="2"/>
  </symbol>
  <symbol id="es" viewBox="0 0 16 16">
    <rect width="16" height="16" fill="#AA151B"/>
    <rect y="4" width="16" height="8" fill="#F1BF00"/>
  </symbol>
  <symbol id="de" viewBox="0 0 16 16">
    <rect width="16" height="5.33" fill="#000"/>
    <rect y="5.33" width="16" height="5.33" fill="#D00"/>
    <rect y="10.66" width="16" height="5.34" fill="#FFCE00"/>
  </symbol>
  <symbol id="fr" viewBox="0 0 16 16">
    <rect width="5.33" height="16" fill="#002395"/>
    <rect x="5.33" width="5.34" height="16" fill="#fff"/>
    <rect x="10.67" width="5.33" height="16" fill="#ED2939"/>
  </symbol>
  <symbol id="pt" viewBox="0 0 16 16">
    <rect width="16" height="16" fill="#FF0000"/>
    <rect width="6.4" height="16" fill="#006600"/>
  </symbol>
  <symbol id="ru" viewBox="0 0 16 16">
    <rect width="16" height="5.33" fill="#fff"/>
    <rect y="5.33" width="16" height="5.33" fill="#0039A6"/>
    <rect y="10.66" width="16" height="5.34" fill="#D52B1E"/>
  </symbol>
  <symbol id="ja" viewBox="0 0 16 16">
    <rect width="16" height="16" fill="#fff"/>
    <circle cx="8" cy="8" r="4.4" fill="#BC002D"/>
  </symbol>
  <symbol id="ro" viewBox="0 0 16 16">
    <rect width="5.33" height="16" fill="#002B7F"/>
    <rect x="5.33" width="5.34" height="16" fill="#FCD116"/>
    <rect x="10.67" width="5.33" height="16" fill="#CE1126"/>
  </symbol>
</svg>

