<svg width="512" height="512" viewBox="0 0 512 512" fill="none" xmlns="http://www.w3.org/2000/svg">
<g clip-path="url(#clip0_1939_2789)">
<g clip-path="url(#clip1_1939_2789)">
<path d="M0 229.376C0 149.087 0 108.942 15.6253 78.2759C29.3697 51.301 51.301 29.3697 78.2759 15.6253C108.942 0 149.087 0 229.376 0H282.624C362.913 0 403.058 0 433.724 15.6253C460.699 29.3697 482.63 51.301 496.375 78.2759C512 108.942 512 149.087 512 229.376V282.624C512 362.913 512 403.058 496.375 433.724C482.63 460.699 460.699 482.63 433.724 496.375C403.058 512 362.913 512 282.624 512H229.376C149.087 512 108.942 512 78.2759 496.375C51.301 482.63 29.3697 460.699 15.6253 433.724C0 403.058 0 362.913 0 282.624V229.376Z" fill="#415368"/>
<g clip-path="url(#clip2_1939_2789)">
<path d="M306.645 202.183C315.9 202.183 323.417 194.666 323.417 185.41C323.417 176.155 315.9 168.637 306.645 168.637C297.389 168.637 289.872 176.155 289.872 185.41C289.872 194.697 297.389 202.183 306.645 202.183Z" fill="white"/>
<path d="M134.02 214.724C139.485 218.704 142.549 224.547 140.875 232.887L130.072 290.661C128.492 300.074 119.427 306.265 110.014 304.496C101.137 302.79 94.5987 294.451 96.3677 284.438L102.496 250.986L98.6735 252.724C91.5979 255.914 83.2588 252.724 80.1 245.585C76.9412 238.446 80.1 230.075 87.1756 226.853L115.699 214.187C122.428 210.807 128.84 211.249 134.02 214.724Z" fill="white"/>
<path d="M144.93 211.944C148.657 216.397 153.034 221.989 150.886 235.255L145.043 266.559L146.116 291.766C146.338 300.737 150.634 304.78 158.215 304.78H177.23C183.264 304.78 185.696 300.168 188.128 294.356L202.627 258.567L204.112 292.745C204.238 300.326 208.092 304.811 215.041 304.811H236.71C242.87 304.811 245.428 301.084 248.145 294.419L275.816 225.874C278.817 218.766 277.079 211.912 269.593 211.912H255.662C250.482 211.912 247.039 213.681 244.986 218.609L226.318 264.537L224.612 223.568C224.328 214.85 220.158 211.944 215.325 211.944H201.205C195.614 211.944 192.361 214.123 190.624 218.387L171.861 264.569L170.186 222.589C169.934 214.723 167.343 211.944 161.026 211.944H148.833C148.602 211.944 144.93 211.944 144.93 211.944Z" fill="white"/>
<path d="M295.967 304.78C304.338 304.78 306.392 298.494 307.592 291.387L319.438 226.379C321.586 216.429 319.152 211.88 309.644 211.88H298.431C289.271 211.88 286.145 216.366 284.912 223.694L272.687 292.461C271.488 299.378 273.982 304.78 281.09 304.78H295.967Z" fill="white"/>
<path fill-rule="evenodd" clip-rule="evenodd" d="M428.796 217.945C433.66 222.462 437.229 228.243 438.872 234.908C440.263 240.53 440.356 246.595 439.314 252.407L430.913 297.609C430.217 301.684 429.27 305.917 426.932 309.486C423.836 314.225 418.941 316.752 412.844 316.752C412.844 316.752 401.914 316.815 398.282 316.752C395.66 316.688 393.292 316.12 391.112 315.204C386.612 313.316 381.674 310.55 380.855 310.092C379.149 309.144 377.561 308.065 376.297 306.58C374.243 304.18 372.033 299.947 372.601 293.156C372.601 293.124 372.506 293.092 372.506 293.156L371.684 297.673C370.991 301.653 370.011 305.822 367.674 309.392C364.484 314.225 359.524 316.783 353.301 316.783H337.413C334.317 316.783 331.853 316.088 329.862 315.204C326.522 313.729 323.276 311.996 320.04 310.308C317.702 313.372 313.5 316.783 306.204 316.783C306.204 316.783 295.054 316.815 291.327 316.783C288.198 316.752 285.797 316.025 283.808 315.141C281.691 314.225 278.155 312.487 277.396 312.077C274.507 310.523 271.344 309.102 269.184 306.549C267.509 304.559 266.404 302.063 265.899 299.284C264.086 303.789 262.335 308.493 258.854 312.013C255.726 315.141 251.715 316.752 246.914 316.752H225.245C221.675 316.752 218.927 315.835 216.684 314.825C213.81 313.53 208.629 310.908 205.945 309.423C204.27 308.507 203.418 307.717 202.533 306.833C199.943 311.603 195.615 316.752 187.434 316.752H168.418C164.722 316.752 161.595 315.899 158.816 314.635C155.72 313.245 150.098 310.402 148.865 309.676C146.997 308.592 145.092 307.36 143.748 305.633C142.422 307.717 140.747 309.613 138.821 311.224C134.525 314.793 129.06 316.752 123.437 316.752C121.921 316.752 120.405 316.625 118.889 316.341C116.709 315.93 114.719 315.109 112.729 314.288C108.907 312.677 105.401 310.876 102.526 309.17C99.1149 307.149 95.9245 304.843 93.5871 301.558C89.8597 296.283 88.4067 289.744 89.5754 283.174C90.4599 278.246 93.2081 263.4 93.2081 263.4C90.7442 262.294 86.2587 260.336 82.7209 258.156C78.4565 255.535 75.6768 252.597 73.8131 248.364C71.5388 243.215 71.3809 237.498 73.3709 232.254C75.3609 227.011 79.2778 222.81 84.395 220.504C93.867 216.294 103.406 212.231 112.824 207.9C116.93 206.005 120.879 204.931 124.89 204.931H161.122C163.743 204.931 166.018 205.342 168.008 206.068C171.135 207.237 178.021 210.743 180.327 212.228C181.838 213.206 183.126 214.415 184.149 215.892C186.578 208.604 193.897 204.931 201.206 204.931H215.326C217.727 204.931 220.096 205.531 222.402 206.479C225.687 207.837 229.572 209.796 232.826 211.691C235.574 213.302 236.806 214.344 238.322 216.555L238.575 215.892C241.575 208.595 247.324 204.899 255.663 204.899H269.498C274.64 204.899 279.391 207.701 283.84 209.985C286.43 207.49 289.652 205.942 293.632 205.279C287.188 201.046 282.891 193.717 282.891 185.41C282.891 172.333 293.537 161.656 306.614 161.656C310.406 161.656 314.07 162.54 317.323 163.93C320.92 165.45 324.223 167.413 327.589 169.363C335.013 173.722 340.445 181.304 340.445 190.496C340.445 197.066 337.728 203.067 333.401 207.363C336.369 205.752 340.033 204.931 344.267 204.931H351.84C356.063 204.931 360.185 204.927 364.168 206.605C367.621 208.002 370.897 209.754 374.181 211.501C381.004 207.269 388.584 204.931 395.598 204.931C402.105 204.931 406.748 206.037 411.264 207.395C418.024 209.416 424.057 213.554 428.796 217.945ZM323.418 185.41C323.418 194.666 315.901 202.183 306.646 202.183C297.39 202.183 289.873 194.697 289.873 185.41C289.873 176.155 297.39 168.637 306.646 168.637C315.901 168.637 323.418 176.155 323.418 185.41ZM134.019 214.724C139.484 218.704 142.548 224.547 140.874 232.887L130.071 290.661C128.491 300.074 119.425 306.265 110.012 304.496C101.136 302.79 94.5975 294.451 96.3665 284.438L102.494 250.986L98.6723 252.724C91.5967 255.914 83.2576 252.724 80.0988 245.585C76.9401 238.446 80.0988 230.075 87.1745 226.853L115.698 214.187C122.426 210.807 128.839 211.249 134.019 214.724ZM150.887 235.255C153.035 221.988 148.658 216.397 144.931 211.944C144.931 211.944 148.603 211.944 148.833 211.944H161.026C167.344 211.944 169.934 214.723 170.187 222.589L171.861 264.569L190.624 218.387C192.361 214.123 195.615 211.944 201.206 211.944H215.326C220.158 211.944 224.328 214.85 224.612 223.568L226.318 264.537L244.986 218.609C247.04 213.681 250.483 211.912 255.663 211.912H269.593C277.08 211.912 278.818 218.766 275.817 225.874L248.145 294.419C245.429 301.084 242.87 304.811 236.711 304.811H215.041C208.092 304.811 204.238 300.326 204.112 292.745L202.627 258.567L188.129 294.356C185.696 300.168 183.264 304.78 177.231 304.78H158.215C150.634 304.78 146.338 300.737 146.117 291.766L145.043 266.559L150.887 235.255ZM295.968 304.78C304.339 304.78 306.393 298.494 307.593 291.387L319.439 226.379C321.587 216.429 319.154 211.88 309.646 211.88H298.432C289.273 211.88 286.146 216.366 284.913 223.694L272.688 292.461C271.489 299.378 273.984 304.78 281.091 304.78H295.968ZM385.457 256.703L379.55 292.176C378.287 300.136 381.667 304.78 388.016 304.78H402.577C410.854 304.78 412.655 298.241 413.823 291.387L422.256 246.027C424.152 237.024 422.573 225.653 414.107 218.071C409.021 213.491 404.82 211.88 395.66 211.88C383.563 211.88 369.79 220.599 364.198 232.065L365.305 226.379C367.862 214.881 362.998 211.912 354.88 211.912H344.393C334.285 211.912 332.074 217.408 330.874 223.694L318.523 292.176C317.481 296.82 318.113 304.78 327.24 304.78H341.866C350.458 304.78 352.259 297.894 353.396 291.418L359.333 258.567C360.692 251.081 361.83 247.385 364.389 244.668C368.337 240.151 376.107 238.193 381.604 242.678C385.078 245.584 386.278 250.196 385.457 256.703Z" fill="black"/>
<path d="M379.55 292.176L385.457 256.703C386.278 250.196 385.078 245.584 381.604 242.678C376.107 238.193 368.337 240.151 364.388 244.668C361.829 247.385 360.692 251.081 359.333 258.567L353.396 291.418C352.258 297.894 350.458 304.78 341.866 304.78H327.24C318.113 304.78 317.481 296.82 318.523 292.176L330.874 223.694C332.074 217.408 334.285 211.912 344.393 211.912H354.88C362.998 211.912 367.862 214.881 365.305 226.379L364.198 232.065C369.79 220.599 383.563 211.88 395.66 211.88C404.82 211.88 409.021 213.491 414.107 218.071C422.573 225.653 424.152 237.024 422.256 246.027L413.823 291.387C412.655 298.241 410.854 304.78 402.577 304.78H388.016C381.667 304.78 378.287 300.136 379.55 292.176Z" fill="white"/>
</g>
</g>
</g>
<defs>
<clipPath id="clip0_1939_2789">
<rect width="512" height="512" fill="white"/>
</clipPath>
<clipPath id="clip1_1939_2789">
<rect width="512" height="512" fill="white"/>
</clipPath>
<clipPath id="clip2_1939_2789">
<rect width="368.032" height="188.688" fill="white" transform="translate(71.985 161.656)"/>
</clipPath>
</defs>
</svg>
